<?xml version="1.0" standalone="no"?>
<!DOCTYPE svg PUBLIC "-//W3C//DTD SVG 20010904//EN"
 "http://www.w3.org/TR/2001/REC-SVG-20010904/DTD/svg10.dtd">
<svg version="1.0" xmlns="http://www.w3.org/2000/svg"
 width="800.000000pt" height="800.000000pt" viewBox="0 0 800.000000 800.000000"
 preserveAspectRatio="xMidYMid meet">

<g transform="translate(0.000000,800.000000) scale(0.100000,-0.100000)"
fill="#000000" stroke="none">
<path d="M6088 7183 c7 -3 16 -2 19 1 4 3 -2 6 -13 5 -11 0 -14 -3 -6 -6z"/>
<path d="M1204 7128 l-19 -23 23 19 c21 18 27 26 19 26 -2 0 -12 -10 -23 -22z"/>
<path d="M6725 7120 c10 -11 20 -20 23 -20 3 0 -3 9 -13 20 -10 11 -20 20 -23
20 -3 0 3 -9 13 -20z"/>
<path d="M1156 7085 c-11 -8 -15 -15 -9 -15 6 0 16 7 23 15 16 19 11 19 -14 0z"/>
<path d="M1135 7039 c-4 -6 -13 -8 -20 -5 -8 3 -19 -3 -27 -12 -11 -15 -11
-15 3 -5 9 7 19 10 22 7 3 -3 16 1 29 10 12 9 17 16 11 16 -7 0 -15 -5 -18
-11z"/>
<path d="M5115 6190 c22 -5 44 -4 50 1 5 5 -11 9 -40 8 l-50 -1 40 -8z"/>
<path d="M5200 6180 c-11 -8 -8 -9 13 -4 17 4 36 1 52 -10 13 -9 32 -16 42
-16 10 0 40 -11 67 -25 40 -19 46 -20 30 -5 -17 17 -153 70 -178 70 -6 0 -18
-5 -26 -10z"/>
<path d="M5018 6163 c6 -2 18 -2 25 0 6 3 1 5 -13 5 -14 0 -19 -2 -12 -5z"/>
<path d="M3070 6150 c-12 -8 -10 -10 10 -10 14 0 32 5 40 10 12 8 10 10 -10
10 -14 0 -32 -5 -40 -10z"/>
<path d="M3203 6143 c9 -2 23 -2 30 0 6 3 -1 5 -18 5 -16 0 -22 -2 -12 -5z"/>
<path d="M5355 6070 c3 -5 14 -10 23 -10 15 0 15 2 2 10 -20 13 -33 13 -25 0z"/>
<path d="M6879 5908 c-7 -12 -19 -33 -27 -45 -8 -13 -12 -23 -9 -23 8 0 59 82
54 87 -3 2 -11 -6 -18 -19z"/>
<path d="M2904 5905 c-18 -14 -18 -14 4 -8 12 3 22 9 22 14 0 12 -3 11 -26 -6z"/>
<path d="M2945 5910 c-3 -5 -1 -10 4 -10 6 0 11 5 11 10 0 6 -2 10 -4 10 -3 0
-8 -4 -11 -10z"/>
<path d="M2995 5911 c-3 -6 3 -9 14 -8 11 0 17 5 15 9 -7 11 -22 10 -29 -1z"/>
<path d="M2734 5844 c-18 -14 -18 -14 6 -3 31 14 36 19 24 19 -6 0 -19 -7 -30
-16z"/>
<path d="M6819 5813 c-8 -10 -21 -27 -29 -38 -15 -20 -15 -20 9 0 21 18 47 55
38 55 -2 0 -10 -8 -18 -17z"/>
<path d="M3085 5800 c-3 -5 -2 -10 4 -10 5 0 13 5 16 10 3 6 2 10 -4 10 -5 0
-13 -4 -16 -10z"/>
<path d="M3029 5779 l-24 -20 30 17 c39 24 40 24 28 24 -6 0 -21 -9 -34 -21z"/>
<path d="M2944 5734 c-18 -14 -18 -15 4 -4 12 6 22 13 22 15 0 8 -5 6 -26 -11z"/>
<path d="M3019 5714 l-24 -27 28 18 c15 9 27 21 27 26 0 14 -5 11 -31 -17z"/>
<path d="M3610 5698 c-20 -42 -20 -42 -1 -18 19 23 34 60 25 60 -2 0 -13 -19
-24 -42z"/>
<path d="M3059 5683 c-13 -16 -12 -17 4 -4 9 7 17 15 17 17 0 8 -8 3 -21 -13z"/>
<path d="M3084 5679 c-19 -21 -19 -21 11 -8 42 18 53 29 29 29 -12 0 -29 -9
-40 -21z"/>
<path d="M3522 5680 c0 -14 2 -19 5 -12 2 6 2 18 0 25 -3 6 -5 1 -5 -13z"/>
<path d="M2899 5673 c-13 -16 -12 -17 4 -4 16 13 21 21 13 21 -2 0 -10 -8 -17
-17z"/>
<path d="M2310 5653 c0 -22 2 -25 10 -13 13 20 13 40 0 40 -5 0 -10 -12 -10
-27z"/>
<path d="M3370 5675 c0 -3 16 -22 35 -42 19 -20 35 -40 35 -44 0 -4 -255 -7
-567 -6 -313 1 -638 -2 -723 -6 -154 -8 -307 -24 -323 -34 -5 -3 -39 -9 -75
-14 -37 -5 -96 -14 -132 -19 -51 -7 -75 -6 -112 6 -60 19 -86 16 -110 -16 -27
-37 -68 -244 -68 -348 l0 -88 38 3 c20 1 29 0 19 -3 -9 -3 -15 -9 -12 -14 3
-5 -4 -7 -15 -5 -25 5 -26 -20 -4 -96 21 -71 46 -111 115 -184 l57 -60 3 -71
c3 -61 1 -74 -20 -100 -19 -25 -22 -36 -17 -77 12 -91 22 -99 33 -27 l10 65 2
-70 c1 -49 10 -97 31 -160 34 -98 104 -233 126 -242 8 -3 14 -13 14 -23 0 -23
16 -35 23 -18 3 8 6 6 6 -4 1 -20 30 -38 49 -31 10 4 10 9 -3 23 -10 11 -12
20 -6 24 5 4 12 2 16 -4 4 -6 10 -8 15 -5 4 3 7 -3 5 -12 -2 -10 -4 -24 -4
-31 -1 -7 -6 -10 -13 -6 -7 5 -8 3 -3 -6 6 -10 11 -10 20 3 16 23 28 22 16 -1
-8 -14 -6 -18 10 -19 12 -1 17 3 13 9 -4 7 -2 8 4 4 6 -4 9 -13 5 -21 -6 -17
15 -48 27 -40 9 6 8 24 -2 41 -4 6 -1 11 7 11 8 0 14 -3 13 -6 -2 -19 4 -22
20 -10 16 13 16 13 -1 -7 -9 -11 -14 -24 -10 -29 5 -4 2 -5 -4 -1 -9 5 -13 0
-13 -15 0 -18 2 -19 15 -9 13 11 14 10 9 -3 -4 -11 4 -26 23 -42 15 -15 23
-24 16 -21 -7 4 -23 4 -37 0 -21 -5 -26 -14 -32 -50 -3 -24 -10 -47 -15 -50
-13 -7 -11 -24 2 -24 14 0 105 101 101 112 -1 5 9 1 23 -8 30 -19 31 -24 7
-17 -22 5 -72 -39 -72 -64 1 -14 4 -13 14 7 l14 24 4 -22 3 -22 38 25 c21 15
35 31 31 37 -5 7 -2 8 6 3 9 -5 -3 -22 -41 -56 -30 -26 -48 -48 -41 -49 6 0
12 4 12 10 0 5 14 17 31 25 16 9 39 25 49 35 17 17 22 18 45 6 l25 -13 -30
-13 c-39 -16 -80 -65 -80 -95 0 -13 -14 -37 -30 -53 -16 -17 -30 -37 -30 -45
0 -8 -6 -20 -14 -26 -10 -9 -7 7 9 51 12 35 28 62 33 61 6 -2 9 3 6 11 -3 8 3
22 13 32 65 65 46 72 -23 9 -27 -24 -52 -45 -56 -45 -14 0 -78 -62 -78 -75 0
-8 -8 -21 -17 -30 -11 -12 -17 -33 -16 -69 0 -48 -11 -71 -29 -60 -4 3 -8 35
-8 72 0 47 -3 63 -10 52 -7 -11 -10 -5 -10 23 0 28 -4 37 -17 37 -13 0 -14 3
-5 12 7 7 12 27 12 45 0 18 4 33 10 33 14 0 42 58 37 78 -3 13 -6 11 -15 -10
-11 -27 -32 -46 -32 -29 0 5 4 13 10 16 15 9 12 45 -4 45 -8 0 -24 -15 -36
-32 -24 -36 -22 -28 10 49 16 38 27 51 41 50 10 -1 19 -8 20 -17 0 -8 4 -5 10
8 5 13 6 29 2 34 -3 7 -1 8 5 4 7 -4 12 -16 12 -27 0 -26 15 -17 33 21 15 28
14 29 -19 52 -19 13 -34 28 -34 33 0 6 -11 -3 -25 -20 l-25 -30 11 33 c12 36
17 28 -73 123 -15 16 -17 14 -26 -39 -5 -31 -8 -62 -5 -68 5 -14 -44 -54 -66
-54 -14 1 -14 2 1 14 18 13 38 92 38 146 0 22 -4 26 -22 24 -13 -1 -26 -3 -30
-3 -5 -1 -8 -8 -8 -16 0 -8 -5 -15 -10 -15 -6 0 -18 -13 -28 -30 -18 -29 -19
-29 -38 -12 -15 15 -19 29 -16 67 3 31 7 43 13 34 12 -20 23 15 15 52 -5 25
-3 30 10 25 8 -3 13 -2 10 2 -2 4 0 14 5 22 6 10 7 0 4 -29 l-6 -45 21 24 c11
12 20 18 20 11 0 -7 -7 -19 -15 -28 -8 -8 -12 -19 -9 -25 4 -7 2 -8 -4 -4 -7
4 -15 -9 -22 -34 -14 -51 -7 -76 9 -35 7 17 23 41 36 55 45 48 30 210 -20 210
-11 0 -15 -4 -10 -8 16 -11 16 -32 1 -26 -9 3 -16 -5 -21 -23 -4 -15 -9 -23
-12 -16 -2 7 1 22 7 33 21 40 4 30 -56 -33 -32 -34 -55 -58 -50 -55 4 4 15 1
23 -7 16 -17 10 -46 -14 -70 -10 -11 -16 -38 -18 -81 -1 -39 -7 -69 -14 -73
-7 -5 -18 -28 -25 -52 l-14 -44 -6 35 c-8 44 -2 178 9 205 5 15 3 14 -11 -5
-25 -33 -30 -121 -10 -195 9 -35 12 -63 6 -69 -4 -4 -6 -14 -4 -21 3 -7 -5
-39 -16 -71 -34 -94 -64 -206 -64 -246 -1 -21 -4 -38 -7 -38 -4 0 -3 -18 2
-40 10 -45 2 -93 -13 -84 -15 9 2 -57 18 -74 8 -7 14 -17 14 -22 0 -9 31 -23
37 -16 3 2 -3 18 -12 36 -31 60 -10 49 23 -12 19 -34 26 -56 18 -49 -19 16
-20 8 -5 -21 9 -17 13 -18 21 -7 8 12 9 11 5 -1 -7 -26 -36 -23 -47 5 -6 16
-14 23 -22 19 -6 -4 -8 -3 -4 4 3 6 -5 23 -19 38 l-26 28 10 -28 c6 -15 11
-37 11 -49 0 -12 7 -35 16 -52 25 -48 35 -77 24 -70 -15 9 -36 55 -45 95 -8
36 -45 94 -45 69 2 -31 47 -152 53 -138 3 7 5 -4 5 -26 -1 -22 7 -56 17 -75
21 -42 86 -116 98 -112 5 1 6 -2 3 -7 -3 -5 4 -21 16 -36 21 -27 21 -27 1 -16
-12 6 -23 15 -25 20 -1 5 -30 40 -63 76 -43 48 -61 78 -65 103 -3 19 -10 37
-17 39 -8 3 -10 -7 -7 -34 14 -96 77 -246 127 -300 26 -29 11 -30 -20 -1 -13
12 -23 17 -23 12 1 -15 26 -44 39 -44 6 0 11 -6 11 -13 0 -7 13 -31 30 -53 16
-21 30 -44 30 -50 0 -12 55 -64 89 -82 20 -12 25 -12 32 0 7 10 9 9 9 -4 0
-16 17 -23 36 -15 4 1 11 -8 15 -21 5 -13 13 -20 19 -17 5 3 10 -3 10 -14 0
-33 28 -24 39 12 l9 32 2 -35 c1 -19 4 -28 7 -20 2 8 7 21 9 29 4 14 64 -64
64 -84 0 -5 -5 -3 -10 5 -8 12 -10 10 -9 -10 0 -14 4 -34 8 -44 7 -19 8 -19
14 3 3 14 10 20 17 16 8 -5 10 4 5 32 -5 34 -4 35 6 13 31 -69 32 -71 41 -58
6 10 8 9 8 -2 0 -9 -6 -22 -12 -29 -7 -6 -13 -36 -13 -67 0 -47 2 -52 13 -37
7 10 15 28 19 41 3 14 11 21 19 18 14 -5 28 39 27 89 -1 24 0 26 4 6 4 -19 7
-21 14 -10 7 9 7 4 3 -16 l-7 -30 22 28 c24 29 44 36 35 12 -4 -8 -2 -15 4
-15 5 0 12 12 15 28 7 30 24 59 30 52 3 -3 1 -27 -3 -55 -8 -52 -4 -76 7 -36
4 16 8 19 14 10 4 -7 3 -21 -2 -30 -15 -28 -11 -33 11 -14 20 18 20 17 20 -11
0 -23 -2 -26 -11 -14 -16 23 -2 -115 17 -173 9 -26 20 -44 25 -41 6 3 8 8 5
11 -3 3 -1 13 4 22 5 10 5 34 0 58 -5 22 -6 60 -1 84 7 43 8 41 16 -41 5 -47
8 -88 7 -92 -1 -4 5 -5 13 -2 13 5 14 21 9 88 -3 44 -7 86 -9 93 -2 7 0 15 4
17 5 3 11 -36 15 -87 5 -74 4 -100 -9 -131 -9 -21 -14 -40 -12 -42 2 -3 10 9
17 26 7 16 16 30 21 30 5 0 8 37 8 83 -1 45 0 87 1 92 1 6 1 20 1 32 -1 11 2
24 7 27 5 3 8 -37 7 -97 -2 -56 1 -118 5 -137 5 -19 11 -57 15 -84 5 -34 9
-45 15 -35 7 11 10 10 16 -4 3 -9 10 -17 15 -17 5 0 5 8 -1 18 -9 17 -24 77
-39 157 -4 22 -4 51 -1 65 5 19 8 12 13 -30 3 -30 17 -89 31 -130 14 -41 22
-59 19 -40 -4 19 -7 51 -8 70 -1 19 -10 52 -19 72 -20 46 -20 54 -1 38 8 -7
15 -23 15 -35 0 -12 6 -28 14 -34 8 -7 18 -26 21 -42 4 -16 11 -31 16 -34 5
-4 9 -13 9 -21 0 -8 12 -40 26 -70 14 -31 23 -58 19 -62 -4 -4 -10 -1 -12 6
-3 6 -10 9 -16 5 -5 -3 -21 7 -34 23 -18 22 -22 24 -16 8 9 -24 143 -131 143
-114 0 6 11 3 25 -7 13 -10 23 -23 20 -30 -2 -6 3 -14 12 -17 13 -5 14 -1 9
25 -5 27 -3 30 12 25 16 -6 16 -5 0 8 -10 7 -18 18 -18 24 0 5 -7 12 -15 16
-8 3 -15 12 -15 20 0 9 -9 20 -20 26 -17 9 -18 14 -7 30 14 24 23 25 31 4 4
-9 2 -13 -5 -8 -7 4 -10 1 -7 -7 3 -8 11 -13 17 -12 6 2 11 -2 11 -8 0 -6 12
-25 26 -43 22 -26 26 -27 20 -9 -5 15 -3 23 4 23 8 0 11 14 8 40 -2 22 0 40 4
40 5 0 8 -18 8 -40 0 -22 5 -40 10 -40 6 0 10 -7 10 -15 0 -9 -6 -12 -15 -9
-16 6 -21 -11 -6 -20 4 -3 11 -32 15 -63 4 -32 13 -69 21 -83 14 -25 15 -25
10 10 -5 31 -4 30 10 -10 8 -25 15 -52 15 -60 0 -8 9 -26 19 -40 l19 -24 -1
36 c0 20 -4 35 -7 33 -3 -2 -6 5 -6 16 0 10 1 19 3 19 1 0 14 -21 27 -47 25
-47 34 -47 17 -1 -4 13 -11 37 -15 53 l-6 30 14 -25 c7 -14 17 -41 21 -60 13
-58 42 -117 80 -158 19 -22 34 -44 33 -50 -4 -11 157 -162 173 -162 6 0 -37
51 -96 113 -127 133 -150 162 -159 202 -5 26 -3 25 14 -11 11 -22 42 -60 67
-85 26 -24 42 -37 36 -29 -6 8 -17 38 -24 65 -6 28 -16 56 -22 62 -5 7 -5 13
-1 13 5 0 8 19 6 43 -2 23 0 52 5 65 6 15 9 -6 10 -67 1 -82 12 -127 35 -142
5 -3 10 -14 13 -25 8 -38 44 -100 74 -127 26 -23 32 -25 37 -12 6 15 -34 85
-47 85 -4 0 -7 16 -7 36 0 32 1 33 14 17 16 -22 18 -37 3 -28 -6 4 5 -15 24
-41 19 -27 38 -59 41 -71 6 -20 26 -33 26 -18 0 13 -40 83 -54 94 -9 8 -16 19
-16 25 1 17 49 -45 69 -89 10 -22 24 -45 32 -52 12 -10 14 -5 12 30 l-3 42 14
-44 c15 -45 28 -61 83 -99 23 -16 34 -19 39 -10 5 8 17 1 37 -23 26 -31 28
-32 22 -9 l-8 25 23 -20 23 -20 -18 30 -19 30 29 -25 c52 -46 65 -60 66 -72 0
-7 4 -4 8 6 6 16 11 10 24 -32 22 -67 20 -87 -4 -37 -28 58 -12 5 32 -109 22
-55 39 -108 39 -119 0 -10 10 -31 22 -45 11 -15 19 -20 16 -12 -3 8 -2 24 3
35 7 19 8 19 8 -2 1 -13 6 -23 12 -23 7 0 9 9 5 24 -3 14 -1 26 5 28 9 3 9 9
1 23 -9 18 -7 20 18 20 24 0 30 -6 39 -37 7 -20 15 -40 20 -43 5 -3 3 16 -5
42 -17 56 -18 75 -2 48 17 -30 39 -49 58 -52 14 -2 17 3 14 20 -3 15 0 12 10
-9 8 -17 17 -49 20 -70 6 -50 71 -173 83 -160 3 3 -4 17 -15 33 -25 36 -54
104 -47 112 8 8 24 -19 32 -51 3 -16 9 -28 14 -28 4 0 9 12 11 28 2 21 9 10
29 -51 15 -44 29 -75 32 -70 3 4 -2 28 -10 51 -8 24 -12 46 -10 48 9 10 47
-78 47 -108 0 -37 9 -33 12 6 2 17 7 25 15 22 7 -3 13 0 14 7 1 7 4 1 9 -13 7
-24 4 -133 -5 -177 -3 -12 0 -25 6 -28 6 -4 9 -1 8 6 -6 33 14 221 22 208 5
-8 9 -24 9 -36 0 -42 20 -24 22 20 1 30 3 22 8 -28 5 -59 7 -65 14 -40 16 62
21 58 26 -25 4 -47 7 -69 8 -49 3 63 14 102 23 87 5 -8 9 13 10 52 0 36 4 74
9 85 12 29 4 -218 -11 -300 -6 -39 -16 -79 -22 -90 -5 -10 29 22 76 71 47 50
104 103 127 119 23 16 36 31 30 35 -7 4 -7 29 1 84 8 50 15 73 20 64 7 -10 9
-8 10 7 1 22 4 15 14 -28 l6 -29 30 42 c28 38 30 47 26 101 -4 52 -1 65 25
105 18 28 26 53 23 65 -3 10 -2 26 3 36 5 10 12 31 16 47 7 27 6 28 -10 15
-21 -16 -21 -16 33 69 19 28 29 52 23 52 -16 0 -12 27 5 34 8 3 15 17 15 31 0
14 4 25 9 25 4 0 5 -19 1 -42 -5 -24 -5 -45 -2 -48 4 -3 7 -11 8 -17 5 -63 3
-60 19 -39 7 10 18 15 24 11 11 -6 14 5 11 42 -1 13 6 33 14 45 9 12 16 30 16
40 0 9 4 19 9 22 5 3 7 -13 6 -37 -1 -23 -1 -30 2 -16 2 15 37 60 84 108 77
80 108 100 50 33 -18 -21 -27 -41 -24 -53 5 -16 8 -17 21 -7 13 11 14 10 7
-12 -27 -83 -33 -110 -25 -110 10 0 42 89 35 100 -2 4 16 29 41 56 l46 49 -30
-50 c-16 -27 -33 -61 -36 -75 -5 -17 0 -13 14 13 11 21 25 35 30 32 5 -3 12 0
16 6 4 8 3 9 -4 5 -15 -9 -15 -1 -1 26 6 11 12 37 13 56 1 20 7 37 14 40 6 2
22 12 34 23 l23 19 -28 -14 c-15 -7 -43 -28 -62 -45 -19 -17 -35 -29 -35 -26
0 20 35 67 60 80 16 8 33 21 37 28 4 6 34 29 66 50 31 20 57 42 57 48 0 5 5 7
10 4 6 -4 7 -11 4 -17 -4 -7 -2 -8 5 -4 6 4 9 11 6 16 -3 5 0 12 6 16 8 4 9 3
5 -4 -4 -7 0 -12 10 -12 13 0 11 -5 -9 -20 -14 -11 -31 -20 -39 -20 -8 0 -6
-5 5 -11 17 -10 17 -12 2 -37 -9 -15 4 -4 30 25 28 32 51 50 60 47 8 -3 26 6
40 20 14 14 32 26 40 26 8 0 17 5 20 10 3 6 12 10 18 10 7 -1 1 -10 -12 -20
-20 -17 -21 -20 -5 -17 11 1 25 6 32 10 6 5 12 5 12 1 0 -10 30 17 41 38 5 10
6 18 1 18 -5 0 -15 -11 -22 -25 -7 -14 -15 -23 -18 -21 -2 3 7 21 20 40 14 20
28 33 32 29 4 -5 12 1 18 11 8 15 12 16 20 5 7 -10 8 -8 3 8 -3 12 -1 24 5 28
6 3 8 10 5 15 -6 10 14 55 20 48 2 -2 0 -21 -5 -41 -6 -31 -6 -36 5 -27 7 6
16 26 19 44 3 18 13 41 21 52 14 18 14 17 5 -9 -15 -43 -11 -67 5 -32 8 17 24
41 36 55 l21 25 -5 -23 c-5 -22 -4 -23 16 -9 19 13 24 34 43 176 11 88 23 163
26 166 3 3 8 -8 11 -24 4 -17 15 -39 26 -50 15 -15 18 -29 15 -63 -3 -39 -3
-40 6 -13 5 17 13 53 18 80 l9 50 12 -30 c7 -16 13 -41 13 -55 0 -14 4 -30 8
-35 5 -6 11 -33 13 -60 2 -28 3 6 2 75 -1 69 -6 136 -10 149 -6 17 -5 22 3 17
7 -4 12 -19 12 -34 0 -17 3 -23 10 -16 5 5 10 48 11 94 1 61 4 78 10 62 5 -13
7 -28 4 -32 -7 -11 5 -40 16 -40 5 0 9 7 9 15 0 8 5 15 10 15 8 0 15 -33 8
-42 -1 -2 4 -14 12 -27 l13 -24 11 28 c11 26 12 25 14 -28 1 -31 7 -68 12 -82
5 -14 6 -25 1 -25 -5 0 -7 -10 -3 -22 5 -19 7 -16 17 17 l12 40 1 -35 c0 -19
3 -44 6 -55 2 -11 5 -30 5 -42 2 -42 21 -24 22 20 l1 42 13 -30 14 -30 1 45
c1 25 4 39 7 32 2 -6 8 -10 13 -7 4 2 11 -10 15 -28 5 -21 9 -26 12 -15 2 9
-1 26 -7 37 -17 33 -28 111 -20 139 5 16 9 20 9 10 1 -10 5 -18 9 -18 5 0 13
-12 18 -27 l10 -28 1 34 c1 19 4 52 7 75 3 23 3 35 0 29 -11 -25 -23 -12 -19
20 3 19 2 25 -2 15 -5 -10 -9 16 -11 64 -1 45 1 78 5 74 4 -4 8 -19 9 -34 4
-93 2 -88 20 -66 15 18 15 17 10 -19 -2 -20 -1 -37 5 -37 5 0 9 -8 9 -17 0 -9
2 -14 5 -11 3 3 -1 40 -8 84 -8 43 -13 97 -11 119 2 22 1 31 -2 20 -9 -32 -26
-44 -19 -12 5 18 3 27 -5 27 -6 0 -14 -9 -17 -20 -5 -20 -6 -20 -25 -3 -11 10
-24 27 -30 38 -6 12 1 8 17 -10 24 -27 26 -28 22 -7 -7 31 12 94 26 89 6 -2
22 8 34 21 l23 25 6 -32 c4 -20 12 -31 23 -31 12 0 22 -18 35 -60 11 -37 24
-60 32 -60 8 0 20 -11 26 -25 6 -14 15 -25 19 -25 9 0 8 3 -45 113 -21 44 -35
81 -33 84 3 2 11 -5 18 -18 11 -22 12 -22 25 -4 8 10 14 28 15 39 0 20 1 20 9
-1 5 -13 12 -23 15 -23 10 0 35 28 35 38 0 14 28 23 35 12 8 -13 35 -1 35 15
0 7 7 15 15 19 15 6 20 -5 8 -18 -12 -12 -14 -54 -3 -61 5 -3 10 0 10 8 0 8 9
22 20 32 19 18 20 17 20 -3 0 -11 -7 -27 -15 -36 -18 -17 -19 -26 -4 -26 5 0
17 17 26 37 8 21 31 62 51 92 20 30 36 66 37 80 0 14 5 25 10 25 6 -1 28 17
50 39 24 24 27 29 8 12 -37 -32 -43 -24 -13 15 11 14 20 29 20 33 0 5 11 23
24 40 14 18 27 46 31 62 5 24 2 21 -14 -13 -12 -24 -43 -71 -71 -104 -27 -33
-50 -65 -50 -71 0 -18 -67 -93 -75 -85 -4 4 6 20 23 35 17 15 34 40 37 56 4
15 11 27 16 27 4 0 13 10 20 22 l11 21 -31 -22 c-17 -12 -31 -18 -31 -12 0 6
9 15 20 21 11 6 20 19 20 29 0 10 9 26 20 36 22 20 25 15 9 -18 -10 -22 -10
-22 7 -2 9 11 24 36 33 55 41 85 53 103 61 90 5 -8 11 9 15 46 4 32 12 70 17
83 4 13 6 32 3 42 -5 16 -12 11 -39 -29 -17 -26 -38 -62 -45 -80 -7 -17 -20
-37 -28 -43 -23 -20 -5 41 22 71 30 34 67 113 56 120 -5 3 7 31 26 63 20 31
33 60 30 64 -4 3 -10 -3 -14 -13 -13 -37 -69 -110 -80 -107 -7 3 -19 -8 -27
-24 -8 -15 -15 -23 -16 -18 0 6 -12 -9 -26 -33 -14 -23 -23 -46 -20 -50 3 -5
-1 -9 -9 -9 -17 0 -13 61 6 83 6 7 8 18 4 24 -4 6 -2 9 3 8 5 -2 19 8 31 22
22 24 22 24 11 2 -19 -40 -3 -36 22 5 32 51 59 124 58 159 0 16 0 61 0 100 0
40 -5 94 -10 120 -6 27 -12 58 -14 69 -2 11 -4 23 -5 28 0 4 -7 7 -15 7 -18 0
-67 86 -70 120 -1 14 -5 32 -10 40 -6 9 -1 7 13 -4 14 -13 18 -22 11 -26 -13
-8 36 -43 61 -45 10 -1 31 -14 49 -29 18 -15 34 -25 36 -23 5 5 -25 65 -36 72
-5 3 -26 30 -46 60 -21 33 -43 55 -54 55 -10 0 -24 8 -31 17 -12 15 -12 16 6
10 17 -6 17 -5 -3 11 -13 10 -25 27 -26 37 -2 11 -8 19 -13 18 -5 -1 -10 4
-10 10 0 7 -17 40 -38 72 -36 57 -32 59 23 11 27 -24 28 -17 2 36 -28 58 -27
73 5 52 29 -19 31 -13 8 24 -17 27 -17 27 3 10 11 -10 27 -18 35 -18 11 1 10
4 -3 14 -22 16 -23 30 -3 22 8 -3 15 -1 15 4 0 6 7 10 16 10 15 0 15 2 0 25
-21 32 -20 34 7 27 20 -5 21 -4 8 12 -8 9 -20 15 -26 12 -13 -4 -35 12 -35 25
0 11 23 5 49 -13 28 -20 40 -16 21 7 -7 8 -10 15 -6 15 4 0 -1 12 -11 28 l-17
27 22 -19 c28 -24 29 -10 1 20 -21 22 -21 23 -4 96 35 154 105 525 105 560 0
39 -14 58 -24 32 -3 -8 -10 -12 -16 -9 -6 4 -7 -1 -3 -11 4 -12 3 -15 -6 -10
-7 5 -10 2 -9 -6 2 -7 -3 -12 -10 -10 -8 1 -11 -2 -7 -7 3 -6 11 -9 18 -7 7 1
9 1 4 -1 -4 -3 -5 -9 -2 -14 4 -5 0 -6 -7 -4 -9 3 -14 -2 -16 -15 -4 -42 -6
-46 -25 -47 -26 -2 -33 -11 -45 -53 -9 -31 -10 -32 -12 -10 -2 24 -3 24 -11
-5 -5 -19 -6 7 -3 70 3 70 0 116 -10 153 -15 54 -15 54 7 49 12 -3 58 -11 102
-17 44 -7 90 -19 103 -26 21 -14 22 -13 22 23 0 34 -36 335 -46 391 -5 27 4
23 -151 52 -67 12 -145 21 -175 19 -29 -2 -68 1 -87 5 -24 6 -36 4 -42 -5 -7
-11 -9 -12 -9 -1 0 9 -10 13 -27 11 -28 -2 -56 2 -223 38 -87 18 -147 20 -925
24 -231 1 -566 -14 -625 -28 -41 -10 -85 -54 -88 -90 -5 -49 -17 -86 -29 -90
-6 -2 -10 4 -8 14 13 62 14 83 5 78 -6 -3 -7 1 -4 9 3 9 10 13 15 10 5 -3 9
-1 9 5 0 15 -142 19 -147 4 -3 -7 -9 -10 -14 -7 -5 3 -7 10 -4 15 4 5 -4 9
-16 9 -18 0 -19 -2 -9 -15 11 -14 10 -14 -11 -7 -13 5 -103 10 -199 11 -96 1
-183 4 -192 7 -10 3 -25 1 -34 -4 -13 -7 -10 -11 18 -16 34 -6 83 -46 73 -59
-3 -4 0 -3 6 2 8 6 17 4 27 -6 13 -13 13 -16 1 -24 -10 -7 -6 -8 13 -5 15 3
30 0 34 -5 3 -5 9 -7 14 -4 5 3 12 0 16 -6 4 -8 3 -9 -4 -5 -7 4 -12 3 -12 -3
0 -11 -19 -9 -39 3 -10 6 -12 5 -7 -2 4 -7 2 -12 -3 -12 -6 0 -11 6 -11 13 0
9 -2 9 -9 -1 -4 -7 -12 -12 -17 -11 -21 4 -35 -2 -28 -12 4 -7 1 -10 -6 -7 -8
2 -21 26 -30 53 -22 65 -81 131 -129 146 l-38 11 36 34 c20 18 31 34 25 34 -6
0 -21 -11 -34 -25 -28 -29 -40 -32 -40 -7 0 14 -2 15 -10 2 -6 -9 -5 -17 3
-22 7 -5 0 -8 -18 -8 -23 0 -33 6 -43 28 -12 25 -72 81 -72 67z m1243 -182
c-13 -2 -33 -2 -45 0 -13 2 -3 4 22 4 25 0 35 -2 23 -4z m47 3 c0 -3 -4 -8
-10 -11 -5 -3 -10 -1 -10 4 0 6 5 11 10 11 6 0 10 -2 10 -4z m280 -2 c0 -8
-19 -13 -24 -6 -3 5 1 9 9 9 8 0 15 -2 15 -3z m40 0 c0 -8 -19 -13 -24 -6 -3
5 1 9 9 9 8 0 15 -2 15 -3z m-569 -61 c-2 -68 -11 -67 -11 2 0 32 3 55 7 52 3
-4 5 -28 4 -54z m-1472 33 c9 -6 12 -5 8 0 -3 5 3 10 14 10 10 0 19 -3 19 -7
0 -3 10 -6 23 -5 12 0 21 -4 20 -10 -1 -5 7 -16 19 -23 11 -7 17 -8 14 -2 -4
5 -2 12 4 16 5 3 10 0 10 -7 0 -9 3 -9 10 2 9 13 10 13 10 0 1 -20 47 -53 55
-40 4 6 1 9 -6 8 -6 -2 -14 4 -16 12 -4 13 -3 13 6 0 6 -8 11 -11 11 -6 0 5 6
3 13 -3 8 -6 18 -7 22 -3 5 4 5 1 1 -6 -4 -7 -11 -10 -15 -8 -4 3 -8 -1 -8 -8
0 -7 6 -13 13 -13 7 0 11 5 7 10 -3 5 4 6 18 2 18 -5 20 -4 9 4 -8 5 -12 12
-9 16 3 3 14 -4 24 -16 17 -17 17 -22 5 -30 -15 -10 -362 -6 -405 5 -11 2 -92
5 -180 6 -92 1 -152 5 -140 9 11 5 23 7 28 4 4 -2 7 0 7 5 0 6 6 10 13 9 6 0
23 1 37 3 24 2 24 3 -5 10 -24 6 -26 8 -7 9 12 0 22 6 22 12 0 5 -6 7 -12 3
-7 -4 -9 -3 -5 1 10 12 33 16 90 16 30 -1 47 4 47 12 0 9 2 9 8 1 4 -7 25 -11
47 -10 22 1 43 -3 47 -9 4 -5 8 -1 8 10 0 15 2 17 9 6 6 -9 11 -10 15 -3 4 6
14 8 23 5 9 -4 14 -2 10 3 -7 12 43 12 62 0z m-958 -23 c13 -16 12 -17 -3 -4
-10 7 -18 15 -18 17 0 8 8 3 21 -13z m1940 -10 c7 -10 9 -15 5 -11 -5 4 -15 3
-22 -3 -13 -10 -32 6 -20 18 3 4 6 1 6 -6 0 -7 5 -9 10 -6 6 4 8 11 5 16 -10
16 2 10 16 -8z m1046 -8 c0 -8 -4 -12 -9 -9 -5 3 -6 10 -3 15 9 13 12 11 12
-6z m-1127 -5 c0 -5 -2 -10 -4 -10 -3 0 -8 5 -11 10 -3 6 -1 10 4 10 6 0 11
-4 11 -10z m31 -7 c13 -16 12 -17 -3 -4 -17 13 -22 21 -14 21 2 0 10 -8 17
-17z m1024 -2 c3 -5 2 -12 -3 -15 -5 -3 -9 1 -9 9 0 17 3 19 12 6z m56 -8 c13
-16 12 -17 -3 -4 -10 7 -18 15 -18 17 0 8 8 3 21 -13z m-17 -12 c14 -15 15
-21 4 -27 -7 -4 -10 -3 -5 1 4 5 0 17 -10 27 -9 10 -14 18 -11 18 3 0 13 -9
22 -19z m-3007 -16 c0 -8 -4 -12 -9 -9 -5 3 -6 10 -3 15 9 13 12 11 12 -6z
m2661 -10 c-3 -3 -9 2 -12 12 -6 14 -5 15 5 6 7 -7 10 -15 7 -18z m-2338 -5
c-36 -3 -71 -9 -78 -13 -8 -5 -19 -3 -28 4 -14 12 -14 14 -1 19 9 3 51 3 94 0
l78 -4 -65 -6z m2950 -34 c0 -2 -7 -7 -16 -10 -8 -3 -12 -2 -9 4 6 10 25 14
25 6z m-3469 -88 c2 -18 2 -64 -1 -103 l-5 -70 -22 90 c-28 113 -28 115 1 115
19 0 24 -6 27 -32z m2446 -325 c32 -23 48 -54 163 -302 146 -316 279 -521 453
-694 156 -157 246 -187 555 -187 131 0 245 20 396 71 91 30 131 35 54 6 -24
-9 -56 -22 -73 -28 -16 -7 -34 -13 -40 -14 -5 -2 -30 -8 -55 -16 -25 -7 -51
-14 -59 -15 -8 -1 -17 -6 -20 -11 -3 -4 -17 -10 -31 -12 -14 -1 -28 -8 -32
-15 -5 -7 -8 -6 -8 4 0 9 -3 11 -8 5 -8 -11 -17 -12 -172 -18 -58 -3 -109 -6
-115 -8 -5 -2 -20 1 -33 5 -13 4 -28 3 -35 -2 -7 -5 -20 -8 -30 -7 -9 2 -15 0
-12 -5 3 -5 16 -7 30 -5 22 2 23 0 13 -13 -10 -13 -10 -14 0 -8 7 4 12 2 12
-4 0 -7 6 -10 12 -8 7 3 20 -2 28 -10 13 -13 15 -12 21 9 l6 24 8 -28 c5 -19
12 -26 23 -22 8 3 21 0 28 -6 9 -7 14 -7 14 -1 0 21 73 -16 88 -44 8 -16 21
-35 29 -42 7 -8 11 -23 8 -33 -4 -11 2 -27 14 -41 12 -12 21 -17 21 -12 0 6
-6 16 -12 22 -7 7 -14 23 -14 35 -1 12 -5 42 -9 66 -6 35 -5 43 6 39 8 -3 16
-13 17 -23 3 -12 0 -15 -9 -10 -9 6 -10 4 -3 -6 18 -29 31 -78 22 -81 -6 -2
-2 -10 8 -18 11 -9 15 -10 10 -2 -4 6 -2 12 3 12 6 0 11 -6 11 -14 0 -7 7 -19
15 -26 12 -10 15 -10 15 0 0 8 3 11 6 8 6 -6 12 -70 20 -203 9 -140 9 -149 0
-182 -9 -38 5 -44 23 -10 9 16 10 17 5 2 -4 -11 -10 -33 -14 -50 -6 -24 -8
-26 -9 -7 -1 24 -21 31 -21 7 0 -8 -7 -23 -15 -32 -8 -10 -21 -27 -29 -38 -14
-18 -15 -14 -16 50 0 49 -3 65 -10 55 -8 -12 -10 -11 -10 8 0 12 -3 21 -7 21
-20 -3 -27 2 -13 11 12 8 12 15 -7 52 l-21 43 -7 -107 c-4 -59 -11 -105 -16
-102 -5 3 -6 44 -3 92 4 63 3 83 -5 72 -13 -18 -14 -159 -2 -179 6 -9 2 -20
-11 -33 -10 -10 -16 -24 -12 -29 4 -8 10 -7 16 2 11 16 3 -14 -18 -71 l-13
-35 0 40 c-1 22 -1 68 -1 102 1 35 -4 64 -10 68 -7 4 -9 23 -6 49 4 28 3 33
-3 16 -4 -14 -13 -24 -19 -22 -16 3 -15 -19 2 -43 19 -29 26 -87 9 -81 -9 4
-13 -4 -13 -24 0 -17 -5 -30 -11 -30 -7 0 -8 -14 -4 -40 4 -24 3 -40 -3 -40
-11 0 -29 -64 -37 -139 -3 -30 -16 -73 -28 -95 -21 -41 -22 -41 -25 -13 l-3
28 -24 -35 c-13 -19 -25 -50 -27 -68 l-4 -33 -12 41 c-12 43 0 110 19 99 4 -3
15 8 24 24 17 34 20 54 4 31 -10 -15 -10 -11 5 78 2 12 1 22 -1 22 -2 0 -8
-10 -13 -22 -7 -18 -8 -11 -8 30 0 29 5 55 9 58 5 3 9 -1 10 -8 0 -7 4 -4 9 7
12 28 12 37 -1 29 -9 -5 -10 7 -6 42 7 50 1 41 -21 -36 l-10 -35 -2 35 -1 35
-19 -40 c-16 -35 -19 -37 -20 -15 -1 14 -10 43 -21 65 -16 33 -18 35 -14 12 4
-19 2 -26 -5 -22 -5 3 -10 -2 -10 -13 0 -11 9 -22 20 -25 19 -5 19 -7 -7 -54
-31 -54 -168 -195 -255 -261 -47 -36 -181 -102 -206 -102 -3 0 18 17 47 37 36
26 61 53 78 88 14 27 39 65 54 83 16 18 29 38 29 44 0 6 11 26 25 44 27 35 32
54 14 54 -6 0 -8 7 -5 16 4 10 2 13 -6 8 -8 -5 -9 -2 -5 10 4 9 3 14 -2 11 -5
-3 -12 -1 -16 5 -3 5 -2 10 3 10 5 0 12 10 15 21 6 21 5 21 -12 2 -10 -10 -20
-32 -24 -48 -3 -17 -9 -39 -13 -50 -7 -18 -6 -18 9 -6 32 26 19 -11 -19 -54
-21 -24 -33 -32 -29 -20 13 37 35 120 35 133 0 23 -20 12 -26 -15 -8 -31 -44
-105 -55 -113 -4 -3 -23 -40 -44 -82 -20 -43 -41 -78 -46 -78 -16 0 -81 -70
-76 -83 2 -7 17 -15 33 -18 16 -4 22 -7 13 -8 -9 0 -31 2 -48 5 -31 7 -31 7
-15 32 13 20 14 26 3 33 -10 6 -11 9 -1 9 6 0 13 -1 15 -2 1 -1 12 7 25 17 39
33 154 240 123 220 -14 -8 -14 1 0 28 12 21 11 21 -8 5 -10 -10 -32 -45 -48
-78 -34 -71 -44 -73 -17 -2 l20 51 -22 -14 c-28 -19 -72 -77 -68 -90 2 -5 0
-7 -4 -2 -8 8 -44 -21 -44 -36 0 -5 7 -3 17 4 9 8 -2 -11 -25 -41 -40 -52 -48
-78 -23 -72 15 3 14 -10 -3 -33 -12 -17 -17 -18 -41 -7 -22 10 -25 15 -15 27
14 17 5 51 -15 59 -8 3 -15 13 -15 22 0 13 3 14 15 4 13 -11 15 -7 15 26 -1
39 -1 39 -15 14 -10 -17 -14 -20 -15 -9 0 9 7 22 15 29 9 8 15 30 15 57 0 24
5 53 11 64 19 36 3 45 -19 10 -12 -19 -18 -39 -15 -44 3 -5 -11 -24 -32 -41
-30 -26 -36 -36 -30 -55 5 -18 9 -20 21 -10 24 20 17 -14 -11 -56 -29 -42 -27
-52 7 -35 19 10 21 10 11 -1 -19 -20 -16 -29 12 -29 14 0 25 -4 25 -10 0 -19
-28 -10 -76 23 -54 38 -66 62 -35 72 21 6 49 45 34 45 -5 0 -21 -12 -36 -26
-25 -23 -32 -25 -53 -15 -54 24 -122 5 -158 -45 -17 -22 -17 -21 -35 75 -15
80 -5 93 40 52 39 -36 39 -36 65 -16 18 13 18 14 -5 8 -19 -5 -22 -3 -16 8 8
12 6 12 -8 0 -14 -11 -17 -11 -17 0 0 8 -18 22 -40 32 -50 21 -48 21 -53 -5
-4 -21 -4 -21 -6 3 0 14 5 31 12 38 10 10 8 11 -6 5 -10 -3 -17 -3 -16 2 4 21
-2 35 -11 29 -5 -3 -10 2 -10 13 0 10 -11 29 -24 42 -24 22 -25 22 -23 2 0
-11 4 -19 7 -17 7 4 12 -52 14 -142 0 -40 5 -73 10 -73 6 0 4 -6 -2 -12 -10
-10 -15 -10 -22 2 -7 12 -10 8 -10 -13 0 -16 -4 -26 -10 -22 -15 9 -12 47 5
69 17 22 20 67 6 82 -5 5 -14 25 -19 44 -5 19 -14 34 -21 32 -6 -1 -11 5 -11
15 0 9 -3 14 -6 11 -5 -5 3 -54 20 -127 3 -12 10 -29 17 -37 7 -8 7 -14 1 -14
-17 0 -29 24 -36 72 -4 26 -12 51 -18 54 -7 5 -9 -2 -4 -22 7 -28 6 -28 -8 -9
-19 28 -24 61 -8 57 14 -2 14 5 2 33 l-9 20 0 -20 c-1 -16 -5 -14 -20 11 -26
42 -38 49 -46 24 -7 -21 14 -80 27 -80 14 0 8 33 -9 52 -9 10 -14 20 -11 23 3
3 13 -6 22 -19 11 -18 17 -56 21 -135 4 -97 2 -109 -11 -104 -13 5 -15 16 -10
57 3 29 1 58 -5 66 -9 12 -10 11 -5 -4 6 -16 4 -17 -9 -6 -13 11 -14 6 -10
-36 5 -42 4 -46 -6 -26 -16 30 -22 28 -46 -19 l-21 -42 3 55 c2 30 -1 61 -6
69 -7 11 -9 11 -9 1 0 -7 -4 -10 -10 -7 -6 4 -10 -8 -11 -27 -1 -31 -2 -30
-11 12 l-11 45 -14 -40 c-18 -52 -26 -93 -27 -132 -1 -34 -16 -35 -17 0 0 21
-1 21 -8 2 -5 -11 -7 -23 -4 -27 2 -4 -7 -12 -19 -19 -21 -11 -22 -11 -9 5 8
9 11 19 7 23 -3 3 -6 1 -6 -5 0 -7 -4 -12 -9 -12 -5 0 -14 43 -21 95 -7 52
-16 95 -21 95 -5 0 -9 7 -9 16 0 9 -11 29 -25 46 -14 16 -25 25 -25 20 0 -5 7
-15 15 -22 8 -7 13 -16 10 -20 -2 -4 0 -21 5 -39 11 -40 7 -39 -19 5 -12 19
-25 33 -31 29 -11 -7 -40 46 -40 75 0 11 -4 20 -10 20 -16 0 -12 -52 6 -71 10
-11 17 -39 18 -73 4 -74 12 -79 22 -14 l9 53 5 -90 c3 -49 5 -92 3 -94 -1 -2
-9 12 -17 30 -8 19 -24 45 -36 59 l-21 25 16 -34 c9 -18 12 -30 6 -26 -26 16
-52 89 -56 157 -3 39 -12 91 -22 116 -15 41 -18 43 -31 26 -9 -12 -16 -15 -19
-8 -2 6 -11 20 -19 30 -15 18 -15 18 -10 -6 3 -14 6 -33 6 -43 0 -10 3 -16 8
-14 6 5 7 -49 1 -153 -1 -34 -2 -34 -10 10 -4 25 -8 72 -9 105 -1 60 -34 217
-52 245 -7 12 -8 10 -4 -5 3 -11 10 -40 15 -65 5 -25 14 -63 20 -84 6 -24 6
-46 1 -55 -7 -12 -10 -9 -10 14 -1 26 -3 27 -10 10 -7 -16 -9 -12 -10 20 l-1
40 -12 -34 c-16 -45 -37 -52 -37 -12 0 33 -35 130 -52 146 -8 7 -9 5 -5 -8 9
-25 -3 -82 -14 -65 -10 16 -11 2 -3 -41 4 -17 9 -29 13 -27 3 3 6 -30 5 -71
-1 -81 5 -96 69 -180 49 -64 31 -73 -28 -13 -28 28 -41 36 -47 27 -5 -8 -8 -8
-8 -1 0 18 -71 119 -82 119 -6 0 -19 28 -28 63 -9 34 -15 62 -12 62 3 0 1 5
-6 12 -7 7 -12 23 -13 37 0 15 -4 35 -9 46 -11 24 -7 -129 4 -160 4 -11 -1 -6
-11 10 l-18 30 -3 -37 c-4 -46 -22 -50 -23 -5 -4 124 -3 174 5 170 5 -3 7 0 4
8 -11 33 -32 11 -44 -46 -16 -77 -17 -98 -3 -89 8 4 9 -5 5 -33 -4 -21 -2 -52
4 -67 16 -42 30 -110 20 -100 -7 8 -27 64 -59 165 -6 19 -11 46 -12 60 0 22
-1 23 -9 4 -7 -15 -9 -9 -9 26 -1 26 -4 61 -7 78 -6 31 -7 31 -35 -30 -57
-119 -66 -179 -44 -269 4 -15 -2 -9 -14 15 -17 33 -20 35 -16 13 6 -33 -5 -36
-23 -8 -7 11 -9 20 -5 20 5 0 8 20 8 44 0 41 -14 57 -16 18 0 -9 -7 18 -15 61
-8 43 -19 87 -24 97 -6 10 -7 45 -4 79 7 64 0 79 -16 36 -5 -14 -14 -25 -20
-25 -6 0 -5 11 4 29 9 16 13 30 11 32 -2 2 2 30 10 61 14 61 11 75 -13 55 -13
-10 -14 -9 -4 10 7 12 12 28 12 35 -1 7 -8 0 -16 -15 -9 -16 -13 -34 -11 -41
3 -7 -2 -13 -10 -13 -10 0 -13 6 -8 21 20 61 12 73 -10 17 -27 -69 -34 -119
-12 -90 10 13 12 -1 13 -75 l1 -91 -12 60 c-8 39 -14 54 -19 43 -19 -53 -19
-54 -26 -18 -7 33 -7 32 -9 -15 0 -27 5 -60 12 -71 6 -12 18 -32 25 -45 l13
-24 -17 23 c-19 26 -34 29 -34 6 0 -13 -3 -14 -13 -5 -8 6 -16 9 -18 7 -2 -2
-5 28 -7 67 -2 40 -5 83 -6 97 -2 14 -4 33 -5 43 0 9 -7 17 -15 17 -9 0 -12 7
-9 21 5 16 8 18 15 7 7 -9 7 -5 3 12 -4 14 -8 37 -8 52 0 15 -4 25 -8 22 -5
-3 -9 5 -9 17 0 18 2 19 15 9 12 -10 15 -9 15 7 0 22 69 118 77 109 4 -3 12 2
20 12 13 16 14 15 8 -5 -3 -12 -1 -24 5 -28 5 -3 10 1 10 11 0 22 91 175 109
182 22 8 50 40 43 47 -4 4 9 6 28 5 32 -3 57 4 115 29 11 5 49 21 85 36 66 28
130 78 130 102 0 7 12 16 28 19 160 39 393 256 535 499 58 99 158 323 197 440
52 158 61 172 123 189 78 22 101 25 230 22 99 -3 123 -6 144 -23z m-1343 -76
c-3 -9 -10 -17 -15 -17 -11 0 -12 34 -2 44 11 11 24 -9 17 -27z m3689 16 c-11
-23 -10 -44 2 -63 7 -12 6 -13 -6 -3 -9 7 -15 23 -13 35 1 13 3 29 3 36 1 6 6
12 11 12 7 0 8 -7 3 -17z m-3574 -40 c-6 -15 -15 -34 -22 -43 -9 -12 -9 -13 3
-2 8 6 27 12 42 12 25 0 28 -3 28 -36 0 -90 -104 -220 -194 -243 -90 -22 -186
-4 -186 36 0 14 4 13 23 -5 39 -36 89 -30 134 17 94 97 119 142 126 227 5 50
13 64 37 64 17 0 18 -3 9 -27z m2531 -7 c0 -20 -26 -40 -35 -26 -10 16 2 40
20 40 8 0 15 -6 15 -14z m-80 -17 c0 -14 -5 -19 -17 -17 -26 5 -29 38 -4 38
15 0 21 -6 21 -21z m158 -16 c-2 -17 -10 -29 -20 -31 -13 -2 -16 1 -13 12 3 9
7 23 10 31 8 26 26 16 23 -12z m940 4 c-1 -2 3 -11 9 -19 10 -12 10 -15 -2
-15 -8 0 -12 4 -9 9 3 4 1 8 -5 8 -5 0 -12 -15 -14 -32 l-4 -33 -1 33 c-1 21
3 35 13 38 8 4 12 11 8 18 -3 6 -3 8 1 4 4 -3 6 -8 4 -11z m-3174 -82 c46 -23
65 -27 102 -21 40 5 44 4 35 -12 -10 -19 -29 -62 -105 -232 -68 -152 -112
-217 -220 -326 -98 -99 -159 -136 -281 -173 -134 -40 -342 -45 -480 -11 -124
31 -301 136 -392 233 -135 143 -217 321 -240 519 l-5 47 53 -15 c30 -7 89 -14
132 -15 42 0 77 -5 77 -10 0 -5 5 -8 12 -6 7 1 12 -2 13 -8 7 -82 146 -320
228 -390 135 -116 317 -157 540 -121 76 13 95 20 150 59 146 105 236 237 267
392 6 33 16 79 21 102 5 23 6 50 3 60 -3 10 3 4 14 -13 12 -19 44 -43 76 -59z
m3147 0 c7 -6 13 -5 19 5 8 12 9 10 7 -7 -2 -12 -7 -26 -12 -30 -4 -5 -5 -3
-2 3 4 7 1 14 -6 17 -10 4 -13 -2 -10 -21 3 -24 2 -25 -7 -7 -8 16 -10 13 -7
-17 2 -21 -1 -38 -5 -38 -4 0 -8 -12 -8 -27 0 -14 -3 -23 -6 -20 -4 3 -1 50 7
104 7 54 15 87 17 73 2 -14 8 -29 13 -35z m-1264 -10 l28 -24 -24 -1 c-24 0
-61 25 -61 42 0 16 29 8 57 -17z m-440 -12 c6 -16 21 -55 33 -88 63 -176 232
-390 354 -450 177 -87 431 -41 571 104 108 111 193 258 231 394 l19 69 140 -7
c77 -4 141 -8 143 -10 8 -7 -21 -169 -42 -238 -82 -266 -343 -476 -671 -540
-111 -22 -214 -31 -195 -18 11 8 6 9 -20 5 -75 -12 -271 57 -384 135 -62 44
-176 167 -236 256 -48 71 -180 319 -180 337 0 21 108 58 220 77 3 1 10 -11 17
-26z m663 -33 c11 -7 6 -10 -20 -10 -19 0 -42 5 -50 10 -11 7 -6 10 20 10 19
0 42 -5 50 -10z m990 -160 l-11 -25 6 25 c2 14 5 34 6 45 2 19 2 19 6 0 2 -12
-1 -32 -7 -45z m-13 -52 c-3 -8 -6 -5 -6 6 -1 11 2 17 5 13 3 -3 4 -12 1 -19z
m-3364 -23 c-7 -21 -12 -19 -10 4 0 11 5 18 9 15 4 -3 5 -11 1 -19z m-1405
-20 c-3 -3 -9 2 -12 12 -6 14 -5 15 5 6 7 -7 10 -15 7 -18z m4753 2 c-10 -9
-11 -8 -5 6 3 10 9 15 12 12 3 -3 0 -11 -7 -18z m-3371 -3 c0 -8 -19 -13 -24
-6 -3 5 1 9 9 9 8 0 15 -2 15 -3z m-1342 -89 c-3 -3 -9 2 -12 12 -6 14 -5 15
5 6 7 -7 10 -15 7 -18z m4653 -38 c-10 -9 -11 -8 -5 6 3 10 9 15 12 12 3 -3 0
-11 -7 -18z m-1238 -18 c5 -18 2 -26 -6 -26 -8 0 -12 10 -11 21 1 12 3 25 3
30 1 14 8 4 14 -25z m1221 -31 c-3 -49 -3 -50 -14 -43 -5 3 -10 0 -10 -7 0 -8
-19 -32 -42 -53 -23 -22 -35 -31 -25 -19 40 49 12 33 -50 -27 -67 -65 -158
-137 -218 -172 -29 -18 -29 -18 -9 0 12 10 50 38 85 63 35 24 104 85 154 135
49 49 94 90 99 90 5 0 11 6 14 14 3 9 0 11 -8 6 -7 -4 -4 4 5 19 10 14 18 26
19 26 1 0 1 -15 0 -32z m-4844 -43 c-7 -8 -9 -15 -4 -15 12 -1 -27 -30 -40
-30 -5 0 3 14 19 30 30 31 47 41 25 15z m4941 -42 c-12 -20 -14 -14 -5 12 4 9
9 14 11 11 3 -2 0 -13 -6 -23z m-4448 -163 c50 -36 62 -49 25 -28 -13 7 -27
11 -31 10 -5 -1 -5 3 -1 9 4 8 -1 9 -17 4 -16 -4 -20 -3 -10 3 10 8 8 13 -10
25 -12 9 -27 13 -32 10 -6 -3 -7 -1 -3 5 3 6 -6 20 -21 32 -15 11 -33 31 -42
43 -8 12 10 -1 40 -28 30 -28 75 -66 102 -85z m4386 75 c-18 -25 -37 -45 -42
-45 -10 0 2 19 42 63 37 40 37 33 0 -18z m35 -11 c3 -8 2 -12 -4 -9 -6 3 -10
10 -10 16 0 14 7 11 14 -7z m62 -85 c4 3 4 0 0 -7 -5 -9 2 -24 19 -42 l28 -29
-29 3 c-16 2 -29 9 -29 17 -1 8 -7 13 -14 11 -17 -4 -52 28 -45 40 3 5 15 6
27 2 18 -5 14 2 -15 33 -21 21 -38 43 -38 47 0 5 20 -12 44 -37 25 -25 48 -42
52 -38z m-96 7 c0 -8 7 -22 16 -31 22 -21 11 -31 -15 -13 -12 8 -18 18 -15 21
4 4 1 13 -6 22 -10 12 -10 15 4 15 9 0 16 -6 16 -14z m-45 -26 c10 -11 16 -20
13 -20 -3 0 -13 9 -23 20 -10 11 -16 20 -13 20 3 0 13 -9 23 -20z m-62 -11
c-8 -8 -5 -21 9 -45 11 -19 24 -34 29 -34 5 0 9 -9 9 -20 0 -10 16 -36 36 -56
21 -20 28 -31 17 -25 -11 5 -23 8 -26 4 -4 -3 -12 6 -18 21 -8 16 -15 22 -19
15 -5 -6 -12 2 -18 20 -6 17 -16 31 -22 31 -13 0 14 -55 33 -67 21 -14 104
-127 106 -145 1 -5 -5 -7 -11 -5 -7 1 -12 -6 -11 -16 0 -12 -4 -16 -13 -13
-19 7 -18 -26 1 -67 15 -30 15 -31 -1 -12 -16 19 -16 18 -9 -20 8 -47 8 -43 6
-77 0 -16 -6 -28 -12 -28 -7 0 -8 11 -4 31 5 21 4 29 -3 25 -7 -4 -10 8 -8 32
2 20 -1 46 -5 57 -6 17 -8 17 -8 3 -1 -18 -21 -26 -21 -9 0 5 -3 17 -7 27 -5
14 -3 16 11 11 15 -6 15 -3 -3 21 -24 34 -51 58 -51 46 -1 -5 -7 2 -15 16 -8
14 -14 21 -15 15 0 -17 36 -66 43 -58 4 3 7 -23 7 -60 0 -43 -4 -67 -12 -70
-9 -2 -12 -22 -11 -58 1 -49 0 -52 -12 -30 -9 18 -14 21 -19 10 -3 -8 -4 -1 0
15 5 26 3 28 -10 17 -9 -8 -16 -23 -16 -34 0 -23 -31 -96 -42 -97 -3 0 -9 19
-13 43 -4 23 -12 51 -17 62 -9 19 -8 19 9 -1 28 -33 48 -36 51 -8 2 25 40 104
55 115 10 7 -2 90 -16 107 -5 6 -7 26 -3 43 4 23 0 39 -15 61 -42 58 -13 35
36 -30 28 -36 55 -66 60 -65 6 0 15 -7 22 -16 15 -20 17 -7 2 20 -5 11 -14 17
-19 14 -6 -3 -7 1 -4 9 3 9 -5 24 -20 38 -65 56 -92 87 -111 121 -16 31 -17
39 -6 49 11 11 13 10 6 0 -8 -15 57 -117 81 -126 11 -4 12 -2 5 13 -6 10 -7
22 -3 26 4 5 2 5 -5 2 -11 -7 -38 51 -28 62 3 3 8 -5 12 -17 3 -12 9 -22 14
-22 13 0 11 6 -12 52 l-21 40 28 29 c15 16 30 27 33 24 2 -3 0 -10 -6 -16z
m-4688 -11 c-4 -13 -18 -37 -31 -55 -31 -41 -30 -47 6 -28 50 26 47 16 -4 -14
-28 -16 -58 -40 -68 -53 -10 -13 -18 -18 -18 -12 0 6 14 29 31 50 17 21 42 60
57 86 30 53 37 60 27 26z m505 -4 c0 -2 -9 0 -20 6 -11 6 -20 13 -20 16 0 2 9
0 20 -6 11 -6 20 -13 20 -16z m-109 -7 c-6 -8 -7 -18 -3 -22 4 -5 1 -5 -6 -1
-10 6 -10 11 -1 22 6 8 14 14 16 14 3 0 0 -6 -6 -13z m159 -23 c0 -2 -9 0 -20
6 -11 6 -20 13 -20 16 0 2 9 0 20 -6 11 -6 20 -13 20 -16z m4288 -30 l47 -47
-49 34 c-27 19 -51 40 -54 47 -7 22 7 13 56 -34z m-4998 1 c0 -5 -5 -3 -10 5
-5 8 -10 20 -10 25 0 6 5 3 10 -5 5 -8 10 -19 10 -25z m4519 31 c-2 -2 -15 -9
-29 -15 -24 -11 -24 -11 -6 3 16 13 49 24 35 12z m-3739 -31 c17 -9 30 -18 30
-21 0 -4 -59 23 -69 32 -10 9 13 3 39 -11z m4175 -25 c16 -17 16 -20 3 -15 -9
4 -19 13 -22 21 -7 19 -2 18 19 -6z m-4971 -5 c-4 -8 -10 -15 -15 -15 -4 0 -6
7 -3 15 4 8 10 15 15 15 4 0 6 -7 3 -15z m4686 -19 c0 -2 3 -11 6 -20 9 -23
-9 -20 -24 4 -10 17 -10 20 3 20 8 0 15 -2 15 -4z m-3163 -20 c0 -7 -7 -12
-16 -11 -9 2 -20 4 -26 5 -5 1 1 6 15 10 14 4 25 8 26 9 0 1 1 -5 1 -13z
m3519 -7 c19 -22 19 -22 -3 -10 -13 6 -23 16 -23 21 0 15 5 12 26 -11z m-34
-6 c22 -27 30 -43 20 -43 -4 0 -18 14 -30 30 -24 32 -15 42 10 13z m-4782 4
c0 -2 -10 -12 -22 -23 l-23 -19 19 23 c18 21 26 27 26 19z m4409 -24 c6 -16
12 -45 14 -65 2 -20 9 -44 17 -53 11 -13 10 -14 -6 -8 -15 5 -17 4 -8 -8 6 -8
14 -27 17 -44 3 -16 9 -39 12 -50 5 -14 4 -16 -3 -6 -6 9 -8 -11 -4 -58 3 -49
1 -71 -7 -71 -6 0 -11 8 -12 18 0 10 -3 12 -6 5 -2 -7 3 -27 11 -44 20 -40 20
-106 0 -139 l-15 -25 6 25 c14 58 15 70 5 70 -5 0 -10 10 -11 23 -1 29 -19
-47 -22 -93 -1 -24 -7 -35 -17 -35 -10 0 -17 -14 -21 -40 -4 -25 -7 -30 -8
-15 0 14 6 57 14 96 13 63 13 76 0 107 -9 23 -12 51 -9 84 5 41 1 59 -25 116
-17 36 -31 69 -31 73 0 4 18 -12 40 -36 41 -44 49 -57 29 -44 -8 4 -9 -1 -3
-17 5 -13 9 -49 9 -81 0 -79 11 -63 18 28 6 67 4 79 -13 101 -11 14 -20 32
-20 39 0 17 -43 60 -80 79 -17 9 -30 19 -30 23 0 4 19 15 43 24 l42 18 -25
-22 -25 -21 23 6 c13 3 22 3 19 0 -3 -3 5 -24 19 -48 13 -24 24 -50 24 -58 0
-7 7 -22 16 -33 15 -19 15 -18 11 4 -3 12 -1 22 3 22 15 0 -2 40 -22 55 -11 7
-17 18 -14 23 3 5 -1 15 -9 22 -8 7 -15 17 -15 24 0 6 12 -6 27 -27 32 -46 47
-47 38 -4 -13 64 -16 69 -38 63 -21 -5 -21 -5 -3 9 27 20 32 19 45 -12z
m-3134 7 c4 -6 -2 -9 -14 -7 -29 4 -39 17 -13 17 11 0 24 -5 27 -10z m3299
-162 c14 -60 -9 -20 -68 115 -9 21 -16 43 -16 50 0 17 76 -132 84 -165z m-117
147 c0 -8 -4 -12 -9 -9 -5 3 -6 10 -3 15 9 13 12 11 12 -6z m-3207 -9 c0 -2
-8 -10 -17 -17 -16 -13 -17 -12 -4 4 13 16 21 21 21 13z m2665 -26 c3 -6 -1
-7 -9 -4 -18 7 -21 14 -7 14 6 0 13 -4 16 -10z m872 -11 c19 -12 32 -23 30
-26 -5 -4 -77 36 -77 43 0 8 14 3 47 -17z m-555 -6 c-10 -4 -10 -8 -1 -19 7
-8 9 -18 5 -22 -4 -4 -12 1 -17 10 -8 14 -14 15 -34 6 -28 -13 -31 -21 -11
-37 7 -6 16 -34 20 -61 4 -28 10 -50 14 -50 9 0 33 -52 27 -58 -2 -3 -10 7
-16 22 -7 14 -17 26 -24 26 -6 0 -22 23 -35 50 -13 28 -27 50 -32 50 -4 0 -8
14 -8 31 0 16 3 28 8 25 4 -2 30 6 57 19 28 12 52 20 55 18 3 -3 -1 -8 -8 -10z
m-3682 -3 c0 -5 -2 -10 -4 -10 -3 0 -8 5 -11 10 -3 6 -1 10 4 10 6 0 11 -4 11
-10z m47 -8 c8 -5 9 -13 3 -22 -8 -13 -10 -12 -10 2 0 9 -8 19 -17 21 -13 3
-14 5 -3 6 8 0 20 -3 27 -7z m-67 -13 c0 -7 10 -9 26 -5 31 8 24 -11 -9 -24
-12 -4 -47 -17 -77 -29 l-55 -21 40 34 c22 19 45 39 50 45 13 13 25 14 25 0z
m4120 1 c0 -5 -2 -10 -4 -10 -3 0 -8 5 -11 10 -3 6 -1 10 4 10 6 0 11 -4 11
-10z m-3985 -10 c17 -8 16 -9 -9 -7 -16 1 -31 -3 -33 -9 -2 -7 6 -10 24 -6 15
2 25 1 21 -3 -9 -10 15 -34 27 -27 6 3 2 -3 -7 -14 -30 -34 -46 -98 -54 -208
-4 -62 -12 -113 -20 -123 -12 -16 -13 -12 -14 29 0 26 -4 49 -9 52 -15 10 -18
-16 -11 -84 4 -40 2 -95 -6 -140 l-12 -75 4 93 c2 51 0 92 -5 92 -5 0 -7 10
-3 22 3 11 1 19 -4 16 -5 -4 -8 -59 -7 -125 2 -150 1 -145 12 -139 5 4 7 -2 4
-13 -2 -10 18 -63 47 -121 28 -56 46 -99 40 -95 -14 9 -66 109 -108 210 -24
56 -34 96 -34 132 0 29 -4 55 -9 59 -5 3 -8 -24 -7 -66 2 -56 0 -74 -13 -83
-9 -7 -19 -22 -23 -34 -4 -12 -29 -36 -57 -53 -27 -18 -56 -42 -64 -53 -20
-28 -19 -16 2 28 10 22 19 31 24 23 10 -15 107 85 115 119 4 14 2 47 -5 73
-25 97 -20 191 11 211 5 3 10 22 11 42 2 20 13 50 25 66 20 28 44 75 46 93 1
3 5 10 10 15 5 5 6 3 2 -4 -4 -7 -3 -13 2 -13 12 0 22 25 22 55 0 35 18 75 32
74 7 0 22 -4 33 -9z m89 -15 c12 -1 28 -5 36 -8 8 -3 22 -8 30 -11 21 -7 -57
0 -98 9 -23 5 -29 10 -21 16 7 4 17 5 23 2 5 -4 19 -7 30 -8z m-954 -62 c-11
-17 -11 -17 -6 0 3 10 6 24 7 30 0 9 2 9 5 0 3 -7 0 -20 -6 -30z m736 20 c-4
-9 -1 -20 5 -24 8 -4 4 -9 -10 -14 -11 -3 -21 -10 -21 -16 0 -11 -73 -79 -79
-73 -3 2 9 19 26 37 16 17 40 49 52 70 23 38 38 50 27 20z m351 11 c-3 -3 -12
-4 -19 -1 -8 3 -5 6 6 6 11 1 17 -2 13 -5z m2959 -14 c0 -11 -1 -20 -1 -20 0
0 -8 9 -18 20 -16 19 -16 20 1 20 11 0 18 -8 18 -20z m-3276 6 c0 -3 -4 -8
-10 -11 -5 -3 -10 -1 -10 4 0 6 5 11 10 11 6 0 10 -2 10 -4z m3327 -43 c12
-17 12 -17 6 1 -4 14 -3 17 6 12 6 -4 9 -16 6 -25 -3 -11 3 -25 15 -36 11 -10
20 -24 20 -30 0 -7 7 -19 17 -26 15 -13 15 -10 9 33 -4 27 -3 49 3 52 12 8 20
-16 23 -72 1 -24 8 -48 16 -55 13 -10 14 -8 7 12 -4 15 -3 21 3 17 5 -3 13
-18 16 -33 9 -37 58 -154 63 -149 8 8 -21 94 -30 89 -6 -3 -8 7 -5 25 2 17 1
29 -4 26 -10 -6 -9 12 2 46 l8 25 1 -27 c1 -14 5 -28 9 -30 15 -6 50 -117 38
-121 -7 -3 -3 -11 9 -20 17 -13 18 -18 6 -41 -15 -28 -6 -51 9 -26 8 12 10 11
11 -5 1 -11 1 -33 1 -50 l-1 -30 14 30 c14 30 14 30 16 5 1 -17 3 -20 6 -7 5
17 23 24 23 8 0 -5 -7 -22 -15 -37 -12 -24 -15 -26 -16 -9 0 17 -2 16 -11 -5
l-10 -25 -12 34 c-7 18 -20 39 -30 47 -20 14 -35 38 -61 92 -8 17 -18 32 -21
32 -9 0 7 -64 21 -80 7 -8 16 -31 19 -50 5 -31 5 -32 -6 -12 -16 31 -38 28
-39 -5 -4 -66 -9 -112 -18 -163 -6 -30 -13 -73 -15 -96 -6 -47 -78 -243 -103
-281 -24 -37 -29 -10 -5 29 18 29 45 127 40 146 -2 10 13 144 19 165 3 10 7
16 11 13 11 -12 31 33 37 85 4 30 14 80 22 113 8 32 12 61 9 63 -8 8 -27 -47
-20 -58 3 -5 0 -9 -5 -9 -15 0 -14 57 2 63 9 3 8 15 -6 53 -20 57 -22 96 -2
44 9 -24 14 -28 14 -15 1 11 -5 32 -13 46 -7 14 -16 37 -20 52 -3 15 -33 65
-66 111 -33 46 -60 90 -60 97 1 14 7 8 37 -38z m172 28 c15 -27 23 -104 11
-96 -6 3 -10 16 -10 29 0 12 -7 31 -15 42 -8 10 -15 25 -15 32 0 18 18 14 29
-7z m477 -26 c4 -20 3 -27 -3 -20 -6 6 -14 24 -17 40 -5 20 -4 27 3 20 5 -5
13 -23 17 -40z m-4709 3 c-3 -7 -5 -2 -5 12 0 14 2 19 5 13 2 -7 2 -19 0 -25z
m887 17 c-4 -8 -8 -15 -10 -15 -2 0 -4 7 -4 15 0 8 4 15 10 15 5 0 7 -7 4 -15z
m3271 -11 c16 -25 16 -25 -4 -14 -12 6 -21 17 -21 25 0 21 5 19 25 -11z m998
-69 c2 -27 3 -42 0 -32 -2 9 -9 17 -14 17 -6 0 -8 -8 -5 -17 6 -20 -8 -50 -17
-37 -3 5 1 26 8 48 9 26 11 46 4 63 -5 13 -9 32 -9 41 1 34 27 -33 33 -83z
m-4133 81 c0 -3 -4 -8 -10 -11 -5 -3 -10 -1 -10 4 0 6 5 11 10 11 6 0 10 -2
10 -4z m3014 -38 c7 -29 8 -53 1 -46 -11 10 -23 68 -15 68 4 0 10 -10 14 -22z
m275 -18 c0 -10 -3 -8 -9 5 -12 27 -12 43 0 25 5 -8 9 -22 9 -30z m89 15 c-3
-3 -9 2 -12 12 -6 14 -5 15 5 6 7 -7 10 -15 7 -18z m262 15 c0 -5 -2 -10 -4
-10 -3 0 -8 5 -11 10 -3 6 -1 10 4 10 6 0 11 -4 11 -10z m419 -102 c1 -45 -1
-79 -5 -75 -4 4 -8 38 -8 77 -1 38 -5 72 -9 76 -13 13 -7 27 6 15 9 -7 14 -39
16 -93z m-5122 62 c-1 -16 -5 -30 -9 -30 -9 0 -10 8 -2 38 9 31 14 28 11 -8z
m160 -12 c-3 -8 -6 -5 -6 6 -1 11 2 17 5 13 3 -3 4 -12 1 -19z m4623 -11 c0
-18 -2 -19 -10 -7 -13 20 -13 43 0 35 6 -3 10 -16 10 -28z m-460 1 c7 -18 9
-19 9 -5 1 9 6 17 12 17 6 0 8 -7 5 -16 -4 -11 -2 -15 8 -11 21 8 39 -19 32
-46 -3 -13 0 -32 8 -43 7 -10 16 -28 19 -39 6 -16 3 -15 -13 5 -11 14 -29 36
-40 48 -11 13 -20 26 -20 29 0 3 -9 16 -20 30 -19 24 -27 53 -15 53 3 0 10
-10 15 -22z m-56 -4 c3 -8 2 -12 -4 -9 -6 3 -10 10 -10 16 0 14 7 11 14 -7z
m-4265 -36 c0 -13 -4 -32 -9 -43 -7 -15 -9 -10 -9 23 -1 23 4 42 9 42 6 0 10
-10 9 -22z m148 0 c-3 -8 -6 -5 -6 6 -1 11 2 17 5 13 3 -3 4 -12 1 -19z m773
-7 c0 -6 -4 -13 -10 -16 -5 -3 -10 -17 -10 -31 0 -13 -4 -24 -10 -24 -13 0
-13 23 2 55 11 25 28 34 28 16z m-322 -26 c-6 -14 -13 -23 -15 -21 -5 5 15 46
22 46 3 0 -1 -11 -7 -25z m372 15 c0 -5 -4 -10 -10 -10 -5 0 -10 5 -10 10 0 6
5 10 10 10 6 0 10 -4 10 -10z m3368 -85 c0 -13 -5 -7 -13 15 -7 19 -13 46 -13
60 0 19 3 16 13 -15 8 -22 13 -49 13 -60z m86 35 c-8 -7 -24 24 -23 45 0 15 4
13 14 -10 7 -16 11 -32 9 -35z m-3920 4 c-12 -42 -50 -114 -59 -114 -3 0 5 21
16 48 11 26 27 62 34 80 20 47 25 39 9 -14z m3991 -2 c-3 -3 -11 0 -18 7 -9
10 -8 11 6 5 10 -3 15 -9 12 -12z m-3824 -35 c-16 -16 -20 -5 -8 23 9 22 11
23 14 6 3 -10 0 -23 -6 -29z m3731 -65 c6 -7 9 -15 6 -17 -7 -8 -58 90 -57
111 0 11 9 -3 20 -31 11 -27 25 -56 31 -63z m-286 61 c-11 -11 -17 4 -9 23 7
18 8 18 11 1 2 -10 1 -21 -2 -24z m577 -41 c3 -17 2 -34 -3 -37 -6 -4 -10 9
-10 29 0 19 -6 41 -13 48 -8 7 -12 19 -9 26 5 17 26 -22 35 -66z m454 26 c-3
-8 -6 -5 -6 6 -1 11 2 17 5 13 3 -3 4 -12 1 -19z m-4581 -14 c-4 -9 -9 -15
-11 -12 -3 3 -3 13 1 22 4 9 9 15 11 12 3 -3 3 -13 -1 -22z m49 -22 l-28 -27
24 31 c13 17 26 30 28 27 3 -2 -8 -16 -24 -31z m4515 14 c0 -2 -8 -10 -17 -17
-16 -13 -17 -12 -4 4 13 16 21 21 21 13z m-113 -28 c-3 -8 -6 -5 -6 6 -1 11 2
17 5 13 3 -3 4 -12 1 -19z m48 -7 c-3 -12 -10 -21 -15 -21 -5 0 -4 11 2 25 13
29 23 26 13 -4z m-4415 -31 c0 -10 -90 -100 -101 -100 -4 0 92 106 99 109 1 1
2 -4 2 -9z m-218 -32 c-8 -8 -9 -4 -5 13 4 13 8 18 11 10 2 -7 -1 -18 -6 -23z
m80 -7 c-15 -34 -32 -46 -32 -22 0 9 39 61 45 61 2 0 -4 -18 -13 -39z m58 35
c0 -2 -8 -10 -17 -17 -16 -13 -17 -12 -4 4 13 16 21 21 21 13z m4500 -40 c-6
-20 -9 -40 -6 -45 3 -5 -1 -14 -9 -21 -9 -7 -15 -8 -15 -2 0 17 33 112 38 108
2 -3 -1 -21 -8 -40z m-520 19 c0 -1 -7 -18 -15 -36 l-15 -34 3 41 c1 28 6 40
15 37 6 -3 12 -6 12 -8z m598 8 c-2 -5 -12 -25 -21 -45 -10 -21 -22 -38 -27
-38 -5 0 0 20 12 45 12 25 26 45 31 45 5 0 7 -3 5 -7z m-674 -89 c10 -4 11
-16 6 -45 -10 -52 -20 -61 -20 -18 0 19 -2 57 -4 84 -2 28 -1 35 1 17 2 -18
10 -35 17 -38z m-4385 44 c0 -7 -4 -22 -9 -33 -7 -17 -9 -15 -9 13 -1 17 4 32
9 32 6 0 10 -6 9 -12z m741 -33 c0 -8 -4 -17 -10 -20 -6 -4 -10 5 -10 20 0 15
4 24 10 20 6 -3 10 -12 10 -20z m3358 -100 l0 -30 -8 30 c-4 17 -8 50 -8 75
l1 45 8 -45 c4 -25 7 -58 7 -75z m-4118 52 c0 -18 -2 -19 -10 -7 -13 20 -13
43 0 35 6 -3 10 -16 10 -28z m5112 -14 c-5 -10 -7 -24 -5 -31 6 -16 -26 -54
-38 -46 -5 3 -9 -1 -10 -8 -2 -31 -9 -51 -23 -67 -9 -10 -16 -23 -16 -29 0 -6
-8 -17 -18 -24 -26 -18 -45 -56 -39 -78 3 -11 -3 -26 -14 -36 -10 -9 -19 -23
-19 -31 0 -22 -83 -139 -88 -124 -2 7 0 16 5 20 18 12 72 99 66 105 -4 4 3 13
15 22 14 10 20 24 19 43 -2 28 -2 28 -71 -36 -38 -35 -71 -61 -73 -59 -3 2 9
31 26 63 17 32 31 63 31 68 0 6 10 21 21 35 15 17 19 19 15 7 -3 -11 -2 -16 4
-12 6 3 10 16 10 28 1 24 37 74 47 64 3 -4 13 -1 21 6 13 10 14 8 7 -13 -7
-25 -35 -54 -43 -45 -3 2 1 11 8 20 7 9 10 18 7 21 -9 9 -28 -33 -22 -48 3 -8
-6 -25 -20 -38 -14 -13 -25 -20 -25 -15 0 4 -11 -14 -25 -40 -14 -26 -24 -49
-22 -51 10 -11 197 225 197 249 0 21 20 33 30 18 10 -17 34 14 26 34 -3 9 0
24 6 35 15 24 23 18 10 -7z m-112 -23 c-12 -17 -25 -28 -30 -25 -5 3 -11 -1
-13 -7 -3 -7 -6 -8 -6 -3 -1 13 20 37 44 52 28 17 29 16 5 -17z m-5119 -12
c11 -21 11 -22 -4 -9 -10 7 -17 17 -17 22 0 15 9 10 21 -13z m4198 -42 c-9 -8
-10 -7 -5 7 3 10 7 28 7 40 2 16 3 14 6 -7 3 -16 -1 -34 -8 -40z m-3332 12
c-3 -8 -6 -5 -6 6 -1 11 2 17 5 13 3 -3 4 -12 1 -19z m30 0 c-3 -8 -6 -5 -6 6
-1 11 2 17 5 13 3 -3 4 -12 1 -19z m4093 -2 c0 -2 -7 -9 -15 -16 -13 -11 -14
-10 -9 4 5 14 24 23 24 12z m260 -86 c-31 -61 -54 -82 -26 -24 7 16 22 49 32
73 11 24 20 37 22 28 2 -8 -11 -43 -28 -77z m-1186 38 c-4 -24 -11 -50 -16
-58 -6 -10 -7 -2 -4 25 3 22 6 48 6 58 0 9 5 17 10 17 6 0 8 -16 4 -42z
m-3134 10 c0 -18 -2 -20 -9 -8 -6 8 -7 18 -5 22 9 14 14 9 14 -14z m154 -21
c5 -27 4 -37 -3 -32 -6 3 -11 22 -11 42 0 44 5 41 14 -10z m3058 -32 c-2 -14
-9 -28 -15 -32 -7 -4 -8 0 -4 11 4 10 7 27 7 37 0 11 4 18 9 15 4 -3 6 -17 3
-31z m30 -7 c-6 -6 -7 0 -4 19 5 21 7 23 10 9 2 -10 0 -22 -6 -28z m817 -1
c-6 -13 -20 -29 -31 -36 -24 -15 -17 0 16 36 26 28 28 28 15 0z m-3939 -13 c0
-8 -4 -12 -10 -9 -5 3 -10 13 -10 21 0 8 5 12 10 9 6 -3 10 -13 10 -21z m-110
-40 c0 -3 -7 -1 -15 6 -8 7 -15 17 -15 22 0 5 7 3 15 -6 8 -8 15 -18 15 -22z
m4240 32 c0 -2 -7 -9 -15 -16 -13 -11 -14 -10 -9 4 5 14 24 23 24 12z m-1145
-43 l-6 -38 13 29 14 29 12 -27 c7 -15 8 -25 3 -21 -10 6 -52 -32 -70 -62 -9
-16 -10 -16 -11 5 0 12 4 22 9 22 8 0 26 75 22 93 0 4 4 7 9 7 7 0 9 -14 5
-37z m-3882 -43 c4 -30 3 -38 -3 -25 -8 19 -14 83 -6 74 2 -2 6 -24 9 -49z
m4988 8 c-10 -30 -54 -88 -67 -88 -3 0 4 13 15 29 12 16 21 34 21 40 0 15 31
63 37 57 3 -3 0 -20 -6 -38z m-5081 -8 c6 -11 8 -20 6 -20 -3 0 -10 9 -16 20
-6 11 -8 20 -6 20 3 0 10 -9 16 -20z m4080 -90 c-26 -130 -39 -170 -56 -177
-8 -3 -14 -11 -14 -19 0 -8 -4 -14 -9 -14 -6 0 -1 20 10 45 11 25 27 77 35
114 7 38 16 75 19 82 35 99 39 90 15 -31z m-2812 30 c11 -32 10 -33 -3 -16 -8
11 -15 29 -15 40 0 25 4 19 18 -24z m-1194 14 c3 -8 2 -12 -4 -9 -6 3 -10 10
-10 16 0 14 7 11 14 -7z m1520 0 c3 -8 2 -12 -4 -9 -6 3 -10 10 -10 16 0 14 7
11 14 -7z m93 -6 c-3 -8 -6 -5 -6 6 -1 11 2 17 5 13 3 -3 4 -12 1 -19z m-300
-20 c-3 -8 -6 -5 -6 6 -1 11 2 17 5 13 3 -3 4 -12 1 -19z m2270 -25 c-3 -10
-5 -2 -5 17 0 19 2 27 5 18 2 -10 2 -26 0 -35z m-2290 -29 c-3 -3 -13 8 -21
25 -23 43 -19 52 5 13 12 -18 19 -35 16 -38z m-477 18 c-7 -3 -16 2 -21 9 -16
25 -9 32 12 13 13 -12 16 -20 9 -22z m730 7 c0 -5 -4 -9 -10 -9 -5 0 -10 7
-10 16 0 8 5 12 10 9 6 -3 10 -10 10 -16z m-1510 -43 c0 -18 -17 8 -24 34 l-7
25 15 -25 c9 -14 15 -29 16 -34z m1695 -21 c28 -64 48 -125 42 -131 -2 -2 -14
24 -27 58 -12 35 -29 70 -36 79 -8 8 -14 29 -13 45 0 16 3 22 6 14 3 -8 16
-37 28 -65z m2989 59 c3 -8 2 -12 -4 -9 -6 3 -10 10 -10 16 0 14 7 11 14 -7z
m-3123 -54 l-10 -25 0 27 c-1 14 2 35 6 45 7 17 8 17 11 -2 1 -12 -2 -32 -7
-45z m2210 25 c5 4 9 -3 9 -14 0 -12 -4 -21 -9 -21 -11 0 -21 26 -20 48 1 15
2 15 6 -1 2 -9 9 -15 14 -12z m-3742 -38 c1 -5 -3 -5 -9 -2 -5 3 -10 16 -9 28
0 21 1 21 9 2 5 -11 9 -24 9 -28z m796 23 c10 -11 16 -20 13 -20 -3 0 -13 9
-23 20 -10 11 -16 20 -13 20 3 0 13 -9 23 -20z m539 -20 c-6 -5 -24 21 -24 34
0 6 6 1 14 -10 8 -10 12 -21 10 -24z m3406 1 c0 -22 -7 -46 -15 -55 -17 -17
-45 -89 -45 -117 0 -10 -5 -21 -10 -24 -18 -11 -3 72 18 108 11 18 25 53 32
80 7 26 14 47 16 47 2 0 4 -18 4 -39z m163 24 c-3 -9 -8 -14 -10 -11 -3 3 -2
9 2 15 9 16 15 13 8 -4z m-3660 -48 c-4 -6 -10 -2 -14 9 -12 31 -9 40 6 20 8
-10 11 -24 8 -29z m-1211 -52 c19 -30 19 -30 -9 3 -16 17 -35 32 -41 32 -7 0
-12 2 -12 4 0 2 -3 13 -7 23 -9 25 41 -20 69 -62z m3427 32 c-5 -21 -7 -43 -3
-50 5 -9 4 -9 -6 0 -11 10 -11 20 -1 54 15 51 24 47 10 -4z m84 28 c-3 -9 -8
-14 -10 -11 -3 3 -2 9 2 15 9 16 15 13 8 -4z m-2686 -2 c-4 -3 -1 -13 6 -22
11 -14 10 -14 -5 -2 -16 12 -16 31 -1 31 4 0 3 -3 0 -7z m839 -129 c27 -18 27
-28 0 -18 -18 7 -96 111 -96 128 0 6 16 -13 35 -42 20 -28 47 -59 61 -68z
m-676 69 c0 -26 -16 -12 -18 15 -1 21 0 23 8 12 5 -8 10 -21 10 -27z m-95 1
c17 -14 21 -21 10 -15 -30 14 -61 40 -50 41 6 0 24 -12 40 -26z m3899 1 c-8
-19 -44 -40 -44 -26 0 8 38 41 47 41 1 0 0 -7 -3 -15z m-2791 -21 c-8 -21 -23
-17 -23 6 0 13 5 18 14 14 8 -3 12 -12 9 -20z m2537 -92 c0 -7 -4 -11 -9 -7
-6 3 -10 13 -9 23 0 9 -3 33 -6 52 -5 29 -4 27 9 -10 8 -25 15 -51 15 -58z
m-103 56 c-3 -7 -5 -2 -5 12 0 14 2 19 5 13 2 -7 2 -19 0 -25z m291 24 c15 12
16 11 3 -4 -14 -19 -32 -15 -30 5 0 8 2 8 6 -1 4 -10 8 -10 21 0z m-3208 -22
c8 -16 8 -18 -4 -14 -17 6 -30 34 -16 34 5 0 14 -9 20 -20z m1734 -18 c-25
-44 -54 -78 -54 -66 0 12 57 94 66 94 3 0 -2 -13 -12 -28z m-3374 -27 l25 -30
-33 29 c-17 17 -32 34 -32 40 0 6 3 6 8 1 4 -6 18 -23 32 -40z m3897 2 c-8
-19 -21 -38 -28 -42 -6 -5 -10 -4 -8 1 33 64 44 83 47 80 2 -2 -3 -20 -11 -39z
m623 -12 c7 -8 8 -15 2 -15 -5 0 -15 7 -22 15 -7 8 -8 15 -2 15 5 0 15 -7 22
-15z m-3290 -5 c18 -12 2 -12 -25 0 -13 6 -15 9 -5 9 8 0 22 -4 30 -9z m169
-6 c10 -9 -45 -3 -59 6 -11 7 -5 8 20 4 19 -4 37 -8 39 -10z m-1189 -9 c0 -8
-4 -15 -10 -15 -5 0 -7 7 -4 15 4 8 8 15 10 15 2 0 4 -7 4 -15z m1541 1 c85
-44 209 -70 224 -46 3 6 11 10 16 10 6 0 3 -7 -5 -16 -23 -22 -20 -37 5 -24
18 10 26 6 62 -33 51 -54 109 -85 188 -99 63 -11 80 -28 27 -28 -88 0 -240 64
-286 119 -24 29 -41 40 -71 44 -38 5 -147 48 -186 74 -26 17 -7 17 26 -1z
m-471 -6 c13 -8 13 -10 -2 -10 -9 0 -20 5 -23 10 -8 13 5 13 25 0z m745 -9
c-3 -6 -11 -11 -17 -11 -6 0 -6 6 2 15 14 17 26 13 15 -4z m1885 5 c0 -2 -8
-10 -17 -17 -16 -13 -17 -12 -4 4 13 16 21 21 21 13z m-1795 -16 c-3 -5 -19
-10 -35 -10 -16 0 -32 -4 -35 -10 -3 -5 -14 -10 -23 -10 -34 1 41 33 91 39 5
1 5 -3 2 -9z m-540 -15 l40 -13 -60 5 c-69 7 -110 23 -55 22 19 0 53 -7 75
-14z m-1302 -26 c-6 -23 -12 -20 -18 9 -2 14 1 19 10 16 7 -3 11 -14 8 -25z
m303 -91 c-8 -23 -15 -36 -16 -27 0 21 21 81 27 75 2 -2 -2 -24 -11 -48z m92
-8 c-6 -23 -13 -39 -15 -36 -7 7 8 76 17 76 4 0 3 -18 -2 -40z m-68 -41 c-7
-11 -14 -18 -17 -15 -3 3 0 12 7 21 18 21 23 19 10 -6z m3687 -21 c-3 -8 -6
-5 -6 6 -1 11 2 17 5 13 3 -3 4 -12 1 -19z m-962 -136 c-15 -16 -16 -15 -4 12
7 15 15 23 17 16 3 -7 -3 -19 -13 -28z m1232 -4 c-3 -8 -6 -5 -6 6 -1 11 2 17
5 13 3 -3 4 -12 1 -19z m-3740 -30 c-3 -7 -5 -2 -5 12 0 14 2 19 5 13 2 -7 2
-19 0 -25z m-209 -48 c1 -23 0 -23 -8 -5 -5 11 -8 34 -8 50 0 29 0 29 8 5 4
-14 8 -36 8 -50z m3572 35 c0 -8 -2 -15 -4 -15 -2 0 -6 7 -10 15 -3 8 -1 15 4
15 6 0 10 -7 10 -15z m-2750 -122 c0 -4 -20 13 -45 37 -25 24 -45 47 -45 51 0
4 20 -12 45 -37 25 -24 45 -47 45 -51z m2770 76 c0 -6 -4 -7 -10 -4 -5 3 -10
11 -10 16 0 6 5 7 10 4 6 -3 10 -11 10 -16z m-3291 -34 c6 3 9 -3 8 -14 0 -11
-5 -17 -9 -15 -4 3 -8 0 -8 -5 0 -17 -27 -13 -34 5 -9 24 -7 28 7 15 11 -8 13
-4 10 22 -3 29 -2 30 7 9 5 -13 14 -21 19 -17z m21 -77 c0 -32 0 -32 -16 -10
-15 22 -12 42 7 42 5 0 9 -15 9 -32z m84 -4 c10 -25 -1 -29 -14 -5 -6 12 -7
21 -1 21 5 0 12 -7 15 -16z m-92 -64 c4 0 8 -10 8 -22 -1 -23 -1 -23 -14 2 -7
14 -16 36 -19 50 -6 23 -5 22 5 -2 7 -16 15 -28 20 -28z m2885 -22 c-3 -7 -5
-2 -5 12 0 14 2 19 5 13 2 -7 2 -19 0 -25z m-2827 -39 c0 -5 -4 -9 -10 -9 -5
0 -10 7 -10 16 0 8 5 12 10 9 6 -3 10 -10 10 -16z m446 -6 c-7 -7 -26 7 -26
19 0 6 6 6 15 -2 9 -7 13 -15 11 -17z m-426 -28 c0 -8 -2 -15 -4 -15 -2 0 -6
7 -10 15 -3 8 -1 15 4 15 6 0 10 -7 10 -15z m337 -127 c-2 -13 -4 -5 -4 17 -1
22 1 32 4 23 2 -10 2 -28 0 -40z m2453 34 c0 -5 -7 -17 -16 -28 -14 -17 -15
-17 -10 -1 3 10 6 23 6 28 0 5 5 9 10 9 6 0 10 -4 10 -8z m-13 -104 c-19 -18
-41 -33 -48 -33 -8 0 -15 -10 -17 -22 -2 -15 -10 -23 -24 -23 -17 0 -18 2 -8
15 18 22 8 26 -23 10 -15 -8 -27 -10 -27 -4 0 5 5 9 11 9 5 0 7 4 4 10 -3 5 0
8 7 5 18 -7 31 5 46 39 7 16 15 26 19 23 3 -4 0 -13 -7 -22 -7 -8 -8 -15 -2
-15 5 0 15 7 22 15 11 13 15 13 21 3 7 -10 9 -10 9 2 0 16 43 40 48 28 2 -4
-12 -22 -31 -40z m-2278 -32 c-3 -3 -11 5 -18 17 -13 21 -12 21 5 5 10 -10 16
-20 13 -22z m317 -46 c7 -8 10 -18 7 -23 -4 -7 -63 59 -63 71 0 6 41 -28 56
-48z m1704 -31 c0 -6 -4 -7 -10 -4 -5 3 -10 11 -10 16 0 6 5 7 10 4 6 -3 10
-11 10 -16z m-2082 -49 l12 -35 -20 24 c-11 13 -20 33 -20 44 0 28 14 11 28
-33z m192 30 c6 -11 8 -20 6 -20 -3 0 -10 9 -16 20 -6 11 -8 20 -6 20 3 0 10
-9 16 -20z m45 -56 c9 -15 12 -23 6 -20 -11 7 -35 46 -28 46 3 0 12 -12 22
-26z m1587 -4 c-9 -16 -21 -30 -25 -30 -9 0 -1 17 21 43 22 25 23 21 4 -13z
m-1891 -57 c13 -16 12 -17 -3 -4 -10 7 -18 15 -18 17 0 8 8 3 21 -13z m564
-140 c9 -19 14 -39 12 -46 -4 -11 -37 55 -37 74 0 5 -7 9 -15 9 -9 0 -12 -6
-9 -17 5 -17 5 -17 -6 0 -6 9 -9 21 -6 25 3 5 -13 26 -34 47 -22 22 -40 44
-40 49 0 18 119 -106 135 -141z m1221 38 c-9 -16 -16 -37 -16 -45 0 -8 -4 -17
-9 -21 -10 -6 -4 19 20 85 7 19 14 29 16 23 2 -6 -3 -25 -11 -42z m44 17 c0
-23 -3 -29 -9 -19 -8 12 -4 51 5 51 2 0 4 -15 4 -32z m-1171 -108 c-1 -8 -7 8
-15 35 -7 28 -13 61 -13 75 1 14 7 -2 15 -35 7 -33 13 -67 13 -75z m1327 104
c-4 -9 -9 -15 -11 -12 -3 3 -3 13 1 22 4 9 9 15 11 12 3 -3 3 -13 -1 -22z
m-1595 -61 l24 -27 -24 15 c-14 9 -27 21 -29 27 -6 19 3 14 29 -15z m-47 2 c3
-8 1 -15 -3 -15 -5 0 -11 7 -15 15 -3 8 -1 15 3 15 5 0 11 -7 15 -15z m353
-47 c-3 -7 -5 -2 -5 12 0 14 2 19 5 13 2 -7 2 -19 0 -25z m1051 -6 c14 11 15
10 9 -5 -4 -10 -7 -28 -7 -40 0 -25 -16 -54 -25 -46 -3 4 -1 18 4 32 7 17 7
28 1 32 -6 4 -9 16 -9 28 1 18 2 19 6 4 4 -15 7 -16 21 -5z m-1168 -56 c0 -26
-6 -18 -14 19 -5 22 -4 26 4 15 5 -8 10 -24 10 -34z m58 -112 c16 -60 33 -118
37 -129 6 -16 5 -17 -4 -9 -7 7 -25 52 -41 100 -16 49 -29 80 -30 69 -1 -15
-4 -12 -11 9 -9 34 -3 48 12 26 7 -11 8 -5 3 20 -13 70 6 22 34 -86z m40 91
c-3 -3 -9 2 -12 12 -6 14 -5 15 5 6 7 -7 10 -15 7 -18z m809 -137 c-3 -7 -5
-2 -5 12 0 14 2 19 5 13 2 -7 2 -19 0 -25z m-735 -53 c3 -14 1 -25 -3 -25 -5
0 -9 6 -9 14 0 8 -3 22 -7 32 -4 11 -3 15 4 11 6 -4 13 -18 15 -32z m733 -130
c7 -43 -4 -87 -20 -81 -7 2 -17 0 -23 -6 -12 -12 -9 140 3 187 8 30 9 30 22
-20 7 -27 16 -63 18 -80z m92 78 c-3 -10 -5 -4 -5 12 0 17 2 24 5 18 2 -7 2
-21 0 -30z m-32 -63 c-4 -12 -9 -19 -12 -17 -3 3 -2 15 2 27 4 12 9 19 12 17
3 -3 2 -15 -2 -27z m-887 -21 c-3 -8 -7 -3 -11 10 -4 17 -3 21 5 13 5 -5 8
-16 6 -23z m301 -44 c0 -5 -6 -1 -14 9 -8 11 -15 27 -15 35 1 17 29 -26 29
-44z m408 -52 c-3 -10 -5 -4 -5 12 0 17 2 24 5 18 2 -7 2 -21 0 -30z m73 -53
c-5 -25 -9 -64 -10 -87 0 -23 -5 -45 -11 -49 -16 -9 -3 124 16 169 12 29 14
15 5 -33z m-273 18 c-3 -8 -6 -5 -6 6 -1 11 2 17 5 13 3 -3 4 -12 1 -19z m-70
-20 c-3 -8 -6 -5 -6 6 -1 11 2 17 5 13 3 -3 4 -12 1 -19z m213 -33 c0 -14 -4
-25 -10 -25 -5 0 -10 11 -10 25 0 14 5 25 10 25 6 0 10 -11 10 -25z m67 -57
c-3 -7 -5 -2 -5 12 0 14 2 19 5 13 2 -7 2 -19 0 -25z m-30 -84 c-16 -33 -43
-41 -30 -9 3 9 -1 15 -9 15 -17 0 -38 -40 -39 -73 0 -12 -5 -31 -10 -42 -6
-14 -7 -7 -3 24 6 44 42 138 43 114 1 -18 21 -16 21 2 0 8 5 15 10 15 6 0 10
12 11 28 1 26 1 26 12 -6 8 -26 7 -40 -6 -68z m34 23 c-13 -13 -15 1 -4 30 7
17 8 17 11 -1 2 -10 -1 -23 -7 -29z"/>
<path d="M2906 5443 c-6 -14 -5 -15 5 -6 7 7 10 15 7 18 -3 3 -9 -2 -12 -12z"/>
<path d="M2956 5452 c-3 -5 1 -9 9 -9 8 0 12 4 9 9 -3 4 -7 8 -9 8 -2 0 -6 -4
-9 -8z"/>
<path d="M2990 5448 c0 -4 4 -8 9 -8 6 0 12 4 15 8 3 5 -1 9 -9 9 -8 0 -15 -4
-15 -9z"/>
<path d="M3090 5406 c0 -2 8 -10 18 -17 15 -13 16 -12 3 4 -13 16 -21 21 -21
13z"/>
<path d="M3200 5370 c-9 -6 -10 -10 -3 -10 6 0 15 5 18 10 8 12 4 12 -15 0z"/>
<path d="M3930 3907 c-14 -7 -36 -14 -50 -14 -48 -4 -65 -13 -89 -48 -13 -19
-26 -33 -29 -30 -3 3 4 19 16 35 l22 30 -27 -12 c-46 -20 -132 -79 -152 -104
-10 -13 -22 -24 -26 -24 -4 0 -2 6 4 14 6 8 10 18 9 24 -2 5 8 19 22 32 l25
22 -28 -17 c-16 -9 -44 -34 -64 -56 -24 -26 -39 -36 -43 -28 -10 15 -42 -2
-69 -37 -27 -35 -20 -42 15 -15 15 11 31 21 35 21 18 0 8 -36 -21 -80 -16 -25
-30 -50 -30 -57 0 -6 -6 -14 -12 -16 -10 -4 -10 -6 -1 -6 6 -1 15 4 18 9 3 6
15 10 26 10 13 0 19 7 19 23 1 20 1 21 11 4 6 -11 8 -32 5 -48 -3 -16 -1 -41
5 -57 6 -15 17 -55 24 -88 14 -64 72 -191 82 -180 8 8 74 -55 68 -64 -3 -4 5
-16 18 -26 l22 -19 -20 24 -20 24 27 -18 c15 -9 26 -21 23 -25 -3 -5 -1 -11 5
-15 5 -3 10 -10 10 -15 0 -5 -20 -1 -45 10 l-45 19 15 -22 c30 -45 114 -110
138 -105 17 3 58 -12 53 -20 -5 -9 64 -6 87 3 10 4 28 3 40 -4 12 -6 31 -9 42
-7 49 11 151 50 237 89 158 74 242 157 293 287 14 36 25 69 25 74 0 17 -43
-28 -75 -79 -36 -56 -56 -75 -80 -79 -27 -4 -123 -79 -118 -92 3 -7 -8 -15
-27 -19 -41 -9 -50 1 -19 22 13 9 55 46 92 82 89 86 133 171 130 253 -2 45 3
66 22 100 42 73 33 125 -33 197 -37 39 -71 51 -64 22 1 -7 -2 -10 -7 -7 -5 3
-7 14 -4 24 3 15 -5 22 -39 35 -44 16 -187 41 -195 33 -2 -2 -22 0 -45 5 -71
16 -182 19 -208 6z m56 -31 c19 -15 19 -15 -1 -11 -11 2 -23 4 -27 4 -11 1
-10 21 0 21 5 0 17 -6 28 -14z m72 -29 c2 -16 -2 -27 -8 -27 -8 0 -10 9 -6 24
3 13 1 27 -4 29 -6 3 -5 4 2 3 7 -1 14 -15 16 -29z m112 19 c0 -11 -19 -15
-25 -6 -3 5 1 10 9 10 9 0 16 -2 16 -4z m110 -7 c0 -5 -4 -9 -9 -9 -5 0 -11
-10 -14 -22 -3 -22 -4 -21 -16 7 l-13 30 -12 -30 c-12 -28 -13 -29 -23 -10 -6
11 -8 25 -6 32 5 13 93 16 93 2z m99 -41 l21 -26 -23 5 c-12 3 -28 10 -34 16
-9 7 -13 4 -14 -9 -1 -14 -3 -12 -8 6 -5 14 -6 28 -5 31 8 15 44 2 63 -23z
m-76 16 c3 -4 1 -16 -5 -28 -11 -20 -11 -20 -18 -1 -11 28 5 47 23 29z m-598
-24 c-3 -5 -20 -19 -38 -30 l-32 -22 33 31 c32 30 49 40 37 21z m-184 -193
c-10 -9 -11 -8 -5 6 3 10 9 15 12 12 3 -3 0 -11 -7 -18z m295 -532 c63 -28 68
-44 7 -24 -34 12 -88 49 -71 49 4 0 33 -11 64 -25z m294 -25 c-24 -15 -37 -11
-16 5 11 8 22 12 25 9 3 -3 -1 -9 -9 -14z m-113 -3 c-28 -6 -61 -6 -79 -1 -24
7 -13 9 48 10 76 0 77 0 31 -9z"/>
<path d="M3670 3860 c-9 -6 -10 -10 -3 -10 6 0 15 5 18 10 8 12 4 12 -15 0z"/>
<path d="M4920 3736 c0 -2 8 -10 18 -17 15 -13 16 -12 3 4 -13 16 -21 21 -21
13z"/>
<path d="M4960 3706 c0 -2 8 -10 18 -17 15 -13 16 -12 3 4 -13 16 -21 21 -21
13z"/>
<path d="M3408 3618 c-32 -49 -39 -68 -25 -62 14 5 51 73 44 81 -2 2 -11 -7
-19 -19z"/>
<path d="M4593 3491 c-7 -36 -11 -66 -9 -69 11 -11 27 44 24 86 l-3 47 -12
-64z"/>
<path d="M3377 3513 c-4 -3 -7 -11 -7 -17 0 -6 5 -5 12 2 6 6 9 14 7 17 -3 3
-9 2 -12 -2z"/>
<path d="M5230 3446 c0 -8 4 -17 9 -20 5 -4 7 3 4 14 -6 23 -13 26 -13 6z"/>
<path d="M5440 3425 c0 -3 9 -23 20 -45 21 -42 26 -65 11 -55 -5 3 -12 19 -16
35 -4 17 -11 30 -16 30 -15 0 -10 -23 11 -55 24 -37 28 -64 5 -45 -8 7 -13 16
-10 20 3 4 -2 13 -10 20 -14 11 -15 0 -11 -95 3 -60 10 -113 16 -119 11 -11
10 21 -6 134 -4 32 -3 34 10 16 9 -10 18 -39 21 -65 10 -74 18 -80 27 -22 6
41 5 57 -4 63 -10 6 -10 10 -1 16 8 5 9 13 3 22 -5 8 -7 31 -4 51 6 37 -17 99
-36 99 -6 0 -10 -2 -10 -5z"/>
<path d="M2435 3386 c-3 -9 -7 -23 -10 -31 -2 -8 -2 -15 1 -15 7 0 25 52 20
58 -3 3 -8 -3 -11 -12z"/>
<path d="M4771 3374 c0 -11 3 -14 6 -6 3 7 2 16 -1 19 -3 4 -6 -2 -5 -13z"/>
<path d="M5134 3355 c17 -39 35 -73 36 -64 1 17 -33 99 -41 99 -5 0 -3 -16 5
-35z"/>
<path d="M5286 3364 c-9 -23 -7 -67 4 -84 6 -10 9 3 8 43 -1 31 -3 57 -4 57
-1 0 -5 -7 -8 -16z"/>
<path d="M5382 3350 c0 -19 4 -48 8 -65 7 -29 8 -28 8 10 0 22 -4 51 -8 65 -7
23 -8 22 -8 -10z"/>
<path d="M2362 3311 c-6 -17 -20 -38 -31 -48 -15 -12 -21 -29 -21 -56 0 -46
15 -41 24 8 4 19 10 35 15 35 9 0 35 80 28 86 -3 3 -9 -8 -15 -25z"/>
<path d="M5241 3330 c0 -8 4 -24 9 -35 5 -13 9 -14 9 -5 0 8 -4 24 -9 35 -5
13 -9 14 -9 5z"/>
<path d="M2396 3314 c-4 -9 -4 -19 -1 -22 2 -3 7 3 11 12 4 9 4 19 1 22 -2 3
-7 -3 -11 -12z"/>
<path d="M2536 3241 c-3 -5 -2 -30 3 -55 10 -53 5 -60 -11 -15 -9 28 -12 29
-21 14 -10 -18 -11 -127 -2 -157 3 -9 11 -15 18 -14 26 4 37 19 36 49 l-1 32
-13 -40 c-11 -33 -13 -35 -14 -15 -1 14 5 34 12 45 17 27 24 140 7 130 -9 -5
-10 -1 -5 14 6 21 1 29 -9 12z"/>
<path d="M5292 3230 c0 -14 2 -19 5 -12 2 6 2 18 0 25 -3 6 -5 1 -5 -13z"/>
<path d="M5111 3230 c0 -8 4 -24 9 -35 l9 -20 0 20 c0 11 -4 27 -9 35 -9 13
-10 13 -9 0z"/>
<path d="M5241 3224 c0 -11 3 -14 6 -6 3 7 2 16 -1 19 -3 4 -6 -2 -5 -13z"/>
<path d="M5036 3174 c-4 -15 -3 -31 2 -36 7 -7 10 3 10 26 0 43 -3 45 -12 10z"/>
<path d="M4963 3142 c-17 -72 -16 -94 3 -59 9 16 14 46 12 70 l-3 42 -12 -53z"/>
<path d="M2851 3125 c1 -43 2 -46 9 -22 5 16 5 38 0 50 -7 17 -9 10 -9 -28z"/>
<path d="M4881 3084 c0 -11 3 -14 6 -6 3 7 2 16 -1 19 -3 4 -6 -2 -5 -13z"/>
<path d="M2768 3035 c-1 -30 0 -55 5 -55 4 0 7 25 7 55 0 71 -7 71 -12 0z"/>
<path d="M2596 3054 c-4 -14 -5 -28 -3 -31 3 -2 8 8 11 23 4 14 5 28 3 31 -3
2 -8 -8 -11 -23z"/>
<path d="M4910 3052 c-20 -24 -40 -60 -40 -69 0 -5 5 -1 10 7 8 12 10 9 10
-12 0 -14 -5 -28 -12 -30 -8 -3 -8 -9 -1 -22 8 -15 12 -10 22 31 7 26 17 58
23 70 15 30 6 48 -12 25z"/>
<path d="M5464 3035 c3 -45 13 -55 22 -21 4 17 1 31 -10 41 -14 14 -15 12 -12
-20z"/>
<path d="M3000 3053 c0 -4 5 -15 10 -23 8 -13 10 -13 10 2 0 9 -4 20 -10 23
-5 3 -10 3 -10 -2z"/>
<path d="M5036 3047 c3 -10 9 -15 12 -12 3 3 0 11 -7 18 -10 9 -11 8 -5 -6z"/>
<path d="M2741 3024 c0 -11 3 -14 6 -6 3 7 2 16 -1 19 -3 4 -6 -2 -5 -13z"/>
<path d="M5172 2995 c0 -16 2 -22 5 -12 2 9 2 23 0 30 -3 6 -5 -1 -5 -18z"/>
<path d="M2580 3006 c0 -2 7 -9 15 -16 9 -7 15 -8 15 -2 0 5 -7 12 -15 16 -8
3 -15 4 -15 2z"/>
<path d="M2713 2970 c0 -25 2 -35 4 -22 2 12 2 32 0 45 -2 12 -4 2 -4 -23z"/>
<path d="M2901 2960 c0 -30 3 -61 8 -69 12 -19 13 74 1 103 -6 15 -9 7 -9 -34z"/>
<path d="M3000 2998 c0 -8 7 -21 15 -28 19 -16 19 -1 0 24 -12 16 -15 17 -15
4z"/>
<path d="M2515 2991 c-3 -6 -3 -16 1 -23 4 -7 3 -8 -4 -4 -14 9 -16 -13 -3
-33 7 -11 11 -5 16 23 7 37 2 56 -10 37z"/>
<path d="M2731 2984 c0 -11 3 -14 6 -6 3 7 2 16 -1 19 -3 4 -6 -2 -5 -13z"/>
<path d="M3040 2969 c0 -20 7 -52 16 -70 l15 -34 -5 53 c-6 67 -25 104 -26 51z"/>
<path d="M2801 2974 c0 -11 3 -14 6 -6 3 7 2 16 -1 19 -3 4 -6 -2 -5 -13z"/>
<path d="M3280 2972 c0 -12 19 -26 26 -19 2 2 -2 10 -11 17 -9 8 -15 8 -15 2z"/>
<path d="M2540 2954 c0 -8 5 -12 10 -9 6 3 10 10 10 16 0 5 -4 9 -10 9 -5 0
-10 -7 -10 -16z"/>
<path d="M4935 2959 c-4 -6 -5 -12 -2 -15 2 -3 7 2 10 11 7 17 1 20 -8 4z"/>
<path d="M2592 2936 c-6 -15 -12 -39 -11 -54 0 -24 2 -23 15 13 18 48 15 81
-4 41z"/>
<path d="M5101 2944 c0 -11 3 -14 6 -6 3 7 2 16 -1 19 -3 4 -6 -2 -5 -13z"/>
<path d="M5193 2938 c-7 -16 -6 -32 3 -53 13 -30 13 -29 14 23 0 28 -2 52 -3
52 -2 0 -8 -10 -14 -22z"/>
<path d="M3810 2939 c0 -5 9 -9 20 -9 11 0 20 2 20 4 0 2 -9 6 -20 9 -11 3
-20 1 -20 -4z"/>
<path d="M3968 2943 c7 -3 16 -2 19 1 4 3 -2 6 -13 5 -11 0 -14 -3 -6 -6z"/>
<path d="M4125 2940 c-3 -5 1 -10 9 -10 8 0 18 5 21 10 3 6 -1 10 -9 10 -8 0
-18 -4 -21 -10z"/>
<path d="M4810 2940 c0 -5 5 -10 11 -10 5 0 7 5 4 10 -3 6 -8 10 -11 10 -2 0
-4 -4 -4 -10z"/>
<path d="M4907 2923 c-3 -16 -9 -37 -13 -48 -5 -14 -4 -17 4 -10 11 10 28 85
19 85 -2 0 -7 -12 -10 -27z"/>
<path d="M5240 2920 c0 -16 2 -30 4 -30 2 0 6 14 8 30 3 17 1 30 -4 30 -4 0
-8 -13 -8 -30z"/>
<path d="M2530 2893 c0 -47 10 -83 21 -83 5 0 9 27 8 60 -1 43 -6 60 -15 60
-9 0 -14 -13 -14 -37z"/>
<path d="M5160 2895 c0 -40 10 -75 22 -75 10 0 1 66 -13 90 -6 11 -8 6 -9 -15z"/>
<path d="M2793 2875 c0 -22 2 -30 4 -17 2 12 2 30 0 40 -3 9 -5 -1 -4 -23z"/>
<path d="M4950 2875 c0 -5 5 -17 10 -25 5 -8 10 -10 10 -5 0 6 -5 17 -10 25
-5 8 -10 11 -10 5z"/>
<path d="M4595 2850 c-3 -5 -1 -10 4 -10 6 0 11 5 11 10 0 6 -2 10 -4 10 -3 0
-8 -4 -11 -10z"/>
<path d="M4766 2845 c-3 -9 -6 -22 -5 -28 0 -7 5 -1 10 12 5 13 8 26 5 28 -2
2 -6 -3 -10 -12z"/>
<path d="M4941 2834 c0 -11 3 -14 6 -6 3 7 2 16 -1 19 -3 4 -6 -2 -5 -13z"/>
<path d="M4400 2830 c-13 -8 -13 -10 2 -10 9 0 20 5 23 10 8 13 -5 13 -25 0z"/>
<path d="M2932 2810 c0 -14 2 -19 5 -12 2 6 2 18 0 25 -3 6 -5 1 -5 -13z"/>
<path d="M3240 2820 c0 -8 5 -22 10 -30 9 -13 10 -13 10 0 0 8 -5 22 -10 30
-9 13 -10 13 -10 0z"/>
<path d="M3396 2792 c10 -18 29 -45 42 -60 l24 -27 -17 28 c-19 33 -13 47 12
25 33 -28 48 -31 24 -5 -13 15 -34 30 -45 33 -12 4 -30 14 -40 23 -19 16 -19
16 0 -17z"/>
<path d="M4058 2813 c7 -3 16 -2 19 1 4 3 -2 6 -13 5 -11 0 -14 -3 -6 -6z"/>
<path d="M4498 2793 c-15 -16 -30 -41 -34 -58 -4 -16 -16 -48 -27 -70 -16 -32
-17 -37 -3 -26 9 7 16 18 16 23 0 6 14 26 30 45 17 18 30 38 30 42 0 14 33 23
40 11 5 -8 10 -7 18 3 9 10 7 19 -9 35 -25 28 -30 28 -61 -5z"/>
<path d="M3988 2803 c6 -2 18 -2 25 0 6 3 1 5 -13 5 -14 0 -19 -2 -12 -5z"/>
<path d="M4284 2788 l-19 -23 23 19 c21 18 27 26 19 26 -2 0 -12 -10 -23 -22z"/>
<path d="M3340 2790 c0 -5 5 -10 11 -10 5 0 7 5 4 10 -3 6 -8 10 -11 10 -2 0
-4 -4 -4 -10z"/>
<path d="M3596 2787 c3 -10 9 -15 12 -12 3 3 0 11 -7 18 -10 9 -11 8 -5 -6z"/>
<path d="M4609 2783 c-11 -15 -11 -16 1 -5 21 18 34 15 19 -5 -13 -16 -12 -17
4 -4 9 7 17 17 17 22 0 15 -27 10 -41 -8z"/>
<path d="M4890 2771 c-6 -12 -7 -21 -1 -21 10 0 24 30 17 37 -2 3 -9 -5 -16
-16z"/>
<path d="M3844 2720 c11 -32 22 -57 24 -55 6 5 -28 104 -37 109 -4 3 2 -21 13
-54z"/>
<path d="M4921 2762 c-6 -12 -18 -22 -26 -22 -9 0 -15 -10 -15 -22 0 -13 -7
-32 -15 -42 -29 -39 -14 -45 19 -8 19 20 30 39 25 41 -6 2 -1 14 11 26 12 13
20 30 18 37 -3 9 -9 5 -17 -10z"/>
<path d="M3380 2754 c0 -12 9 -31 20 -44 11 -13 20 -27 20 -32 0 -5 5 -6 10
-3 16 10 11 28 -20 65 -26 29 -30 31 -30 14z"/>
<path d="M3521 2753 c-1 -12 4 -25 9 -28 12 -7 12 2 0 30 -8 19 -9 19 -9 -2z"/>
<path d="M5156 2745 c-4 -14 -3 -33 2 -41 6 -11 9 -3 10 25 2 47 -3 53 -12 16z"/>
<path d="M4426 2735 c-17 -25 -16 -25 3 -13 22 13 36 38 22 38 -5 0 -16 -11
-25 -25z"/>
<path d="M2541 2724 c0 -11 3 -14 6 -6 3 7 2 16 -1 19 -3 4 -6 -2 -5 -13z"/>
<path d="M3642 2729 c3 -8 11 -41 18 -73 6 -31 14 -55 17 -52 9 8 -18 126 -30
133 -6 4 -8 0 -5 -8z"/>
<path d="M4831 2724 c0 -11 3 -14 6 -6 3 7 2 16 -1 19 -3 4 -6 -2 -5 -13z"/>
<path d="M4156 2721 c-3 -5 1 -11 9 -14 9 -4 12 -1 8 9 -6 16 -10 17 -17 5z"/>
<path d="M3680 2703 c0 -12 5 -25 10 -28 13 -8 13 15 0 35 -8 12 -10 11 -10
-7z"/>
<path d="M4413 2675 c-3 -9 -3 -18 -1 -21 3 -3 8 4 11 16 6 23 -1 27 -10 5z"/>
<path d="M4506 2671 c-10 -10 -14 -21 -9 -24 5 -3 13 6 20 19 13 29 11 30 -11
5z"/>
<path d="M4816 2682 c-3 -5 1 -9 9 -9 8 0 12 4 9 9 -3 4 -7 8 -9 8 -2 0 -6 -4
-9 -8z"/>
<path d="M3281 2664 c0 -11 3 -14 6 -6 3 7 2 16 -1 19 -3 4 -6 -2 -5 -13z"/>
<path d="M3580 2671 c0 -6 4 -13 10 -16 6 -3 7 1 4 9 -7 18 -14 21 -14 7z"/>
<path d="M4776 2605 c-14 -31 -26 -59 -26 -64 0 -4 -12 -25 -26 -46 -26 -38
-26 -39 -2 -23 12 8 29 28 37 44 8 16 18 36 23 44 54 99 55 100 34 100 -7 0
-25 -25 -40 -55z"/>
<path d="M4876 2635 c-9 -14 -21 -23 -26 -20 -11 7 -60 -52 -60 -72 0 -13 2
-14 17 -2 31 24 102 119 90 119 -3 0 -12 -11 -21 -25z"/>
<path d="M3276 2623 c-6 -14 -5 -15 5 -6 7 7 10 15 7 18 -3 3 -9 -2 -12 -12z"/>
<path d="M3456 2607 c-5 -18 -4 -38 3 -53 6 -14 12 -37 12 -52 1 -17 3 -20 6
-9 2 9 9 17 14 17 5 0 8 24 7 54 -2 55 -17 68 -19 18 -1 -20 -4 -17 -9 13 -6
40 -6 40 -14 12z"/>
<path d="M4450 2595 c-7 -9 -11 -17 -9 -20 3 -2 10 5 17 15 14 24 10 26 -8 5z"/>
<path d="M5176 2575 c-3 -9 -6 -22 -5 -28 0 -7 5 -1 10 12 5 13 8 26 5 28 -2
2 -6 -3 -10 -12z"/>
<path d="M4204 2558 l-19 -23 23 19 c12 11 22 21 22 23 0 8 -8 2 -26 -19z"/>
<path d="M4040 2553 c1 -19 16 -31 29 -24 7 5 10 14 7 20 -8 12 -36 15 -36 4z"/>
<path d="M6263 4158 c-23 -30 -24 -41 -2 -21 12 12 20 25 17 28 -3 3 -10 0
-15 -7z"/>
<path d="M6219 3863 c12 -24 31 -39 31 -25 0 5 -10 17 -21 28 -22 19 -22 19
-10 -3z"/>
<path d="M6027 3573 c-2 -5 0 -19 4 -33 7 -23 7 -22 6 8 -1 33 -3 37 -10 25z"/>
<path d="M2268 3573 c7 -3 16 -2 19 1 4 3 -2 6 -13 5 -11 0 -14 -3 -6 -6z"/>
<path d="M2209 3480 c-22 -35 -31 -63 -18 -54 8 4 9 -1 4 -17 -3 -13 -9 -32
-11 -41 -3 -10 -10 -18 -15 -18 -5 0 -9 -5 -9 -12 0 -7 7 -5 18 5 23 21 55
109 50 139 l-3 22 -16 -24z"/>
<path d="M2152 3438 c-5 -7 -13 -24 -17 -37 -5 -17 -4 -22 6 -19 8 3 16 19 20
36 7 35 6 38 -9 20z"/>
<path d="M2135 3348 c-11 -33 -8 -91 3 -84 5 3 9 26 10 51 2 43 -4 59 -13 33z"/>
<path d="M2096 3265 c-3 -26 -3 -52 2 -59 4 -6 10 12 13 39 4 28 3 54 -1 58
-4 4 -10 -13 -14 -38z"/>
<path d="M5775 3420 c3 -5 8 -10 11 -10 2 0 4 5 4 10 0 6 -5 10 -11 10 -5 0
-7 -4 -4 -10z"/>
<path d="M6508 2943 c-22 -26 -41 -64 -34 -71 3 -3 6 -1 6 5 0 6 11 27 25 47
26 39 28 47 3 19z"/>
<path d="M4299 666 c-7 -29 3 -88 12 -71 3 6 2 30 -1 55 -5 41 -6 42 -11 16z"/>
<path d="M2545 5639 c-4 -6 -5 -12 -2 -15 2 -3 7 2 10 11 7 17 1 20 -8 4z"/>
<path d="M3450 5628 c0 -7 5 -20 10 -28 8 -12 10 -11 10 7 0 12 -4 25 -10 28
-5 3 -10 0 -10 -7z"/>
<path d="M6598 5584 c-38 -20 -36 -28 2 -9 17 9 30 18 30 20 0 7 -1 6 -32 -11z"/>
<path d="M6468 5533 c7 -3 16 -2 19 1 4 3 -2 6 -13 5 -11 0 -14 -3 -6 -6z"/>
<path d="M6541 4933 c4 -21 -2 -34 -13 -27 -7 4 -8 3 -4 -4 10 -16 14 -15 26
7 7 14 7 22 0 26 -6 4 -10 3 -9 -2z"/>
<path d="M6575 4243 c13 -37 28 -52 39 -35 6 10 -30 72 -43 72 -5 0 -3 -17 4
-37z"/>
<path d="M6570 4155 c8 -10 41 -45 73 -77 31 -32 57 -61 57 -64 0 -3 9 -17 20
-31 30 -38 24 -19 -17 59 -36 69 -72 106 -93 93 -5 -3 -10 -2 -10 4 0 6 -10
16 -22 22 -22 12 -22 11 -8 -6z m76 -39 c10 -8 17 -17 14 -19 -3 -3 -16 3 -29
14 -27 22 -15 26 15 5z m42 -71 c-3 -3 -9 2 -12 12 -6 14 -5 15 5 6 7 -7 10
-15 7 -18z"/>
<path d="M1604 4088 c1 -44 4 -54 14 -46 15 13 15 35 -2 73 -13 29 -13 28 -12
-27z"/>
<path d="M1376 4069 c-2 -8 -9 -29 -15 -48 -6 -19 -11 -43 -10 -55 0 -12 2
-16 4 -11 25 79 35 118 31 123 -3 2 -7 -1 -10 -9z"/>
<path d="M6499 4022 c12 -23 41 -48 41 -35 0 5 -7 19 -16 31 -19 27 -39 30
-25 4z"/>
<path d="M1780 3986 c0 -2 8 -10 18 -17 15 -13 16 -12 3 4 -13 16 -21 21 -21
13z"/>
<path d="M6636 3981 c-3 -5 2 -15 12 -22 15 -12 16 -12 5 2 -7 9 -10 19 -6 22
3 4 4 7 0 7 -3 0 -8 -4 -11 -9z"/>
<path d="M6466 3966 c3 -8 21 -27 40 -41 20 -15 31 -20 28 -11 -3 8 -21 27
-40 41 -20 15 -31 20 -28 11z"/>
<path d="M1840 3872 c0 -12 19 -26 26 -19 2 2 -2 10 -11 17 -9 8 -15 8 -15 2z"/>
<path d="M6630 3854 c0 -6 7 -19 16 -30 14 -18 14 -18 3 6 -14 31 -19 36 -19
24z"/>
<path d="M1910 3789 c0 -5 5 -7 10 -4 6 3 10 8 10 11 0 2 -4 4 -10 4 -5 0 -10
-5 -10 -11z"/>
<path d="M1266 3706 c-31 -41 -71 -87 -89 -103 -18 -15 -26 -24 -17 -19 8 6
31 25 51 43 l35 33 -3 -37 c-2 -34 -1 -33 11 12 14 55 35 100 43 92 2 -3 0
-13 -5 -24 -17 -33 -30 -83 -23 -83 9 0 35 76 36 101 0 9 7 24 14 33 8 9 11
19 8 22 -3 3 -30 -28 -61 -70z"/>
<path d="M6733 3756 c0 -7 13 -18 29 -24 26 -9 28 -9 17 4 -20 24 -46 35 -46
20z"/>
<path d="M6693 3705 c0 -8 7 -15 15 -15 12 0 12 3 2 15 -7 8 -13 15 -15 15 -1
0 -2 -7 -2 -15z"/>
<path d="M6540 3707 c0 -13 33 -67 41 -67 11 0 -16 55 -31 65 -5 3 -10 4 -10
2z"/>
<path d="M2070 3685 c-8 -9 -8 -15 -2 -15 12 0 26 19 19 26 -2 2 -10 -2 -17
-11z"/>
<path d="M6590 3670 c6 -12 34 -36 61 -52 33 -21 49 -38 49 -52 0 -24 49 -129
50 -106 0 32 -31 135 -47 152 -9 10 -24 18 -33 18 -9 0 -25 9 -36 21 -10 11
-27 25 -37 31 -17 8 -17 7 -7 -12z"/>
<path d="M1837 3636 c-6 -16 2 -28 14 -20 12 7 11 34 0 34 -5 0 -11 -6 -14
-14z"/>
<path d="M1907 3626 c-4 -10 -5 -21 -2 -24 9 -9 17 6 13 25 -3 17 -4 17 -11
-1z"/>
<path d="M6605 3620 c3 -5 11 -10 16 -10 6 0 7 5 4 10 -3 6 -11 10 -16 10 -6
0 -7 -4 -4 -10z"/>
<path d="M1860 3602 c0 -7 -7 -12 -15 -12 -17 0 -35 -38 -35 -72 0 -27 8 -19
13 13 2 13 10 24 18 24 14 0 33 44 24 54 -3 2 -5 -1 -5 -7z"/>
<path d="M1233 3555 c-7 -16 -8 -27 -1 -31 12 -8 14 -5 22 29 8 34 -5 35 -21
2z"/>
<path d="M6665 3520 c10 -11 20 -20 22 -20 2 0 -2 9 -9 20 -7 11 -17 20 -22
20 -5 0 -1 -9 9 -20z"/>
<path d="M1214 3494 c3 -9 6 -22 6 -30 0 -8 5 -14 10 -14 6 0 10 14 10 30 0
21 -5 30 -16 30 -11 0 -14 -5 -10 -16z"/>
<path d="M6666 3475 c9 -39 20 -51 26 -28 3 10 -4 27 -14 38 -19 20 -20 20
-12 -10z"/>
<path d="M1208 3386 c4 -32 2 -35 -26 -38 l-30 -3 24 -45 25 -45 -3 42 c-4 47
2 47 19 0 10 -29 11 -25 8 37 -2 38 -8 73 -12 77 -5 5 -7 -6 -5 -25z"/>
<path d="M6865 3399 c-4 -6 -17 -14 -29 -19 -14 -6 -16 -9 -5 -9 9 -1 24 8 34
19 10 11 15 20 12 20 -3 0 -9 -5 -12 -11z"/>
<path d="M6751 3350 c0 -8 4 -22 9 -30 12 -18 12 -2 0 25 -6 13 -9 15 -9 5z"/>
<path d="M6877 3310 c-4 -17 -2 -18 14 -9 11 5 17 14 14 20 -10 15 -22 10 -28
-11z"/>
<path d="M6902 3223 c2 -10 13 -19 26 -21 24 -4 29 7 10 26 -18 18 -40 15 -36
-5z"/>
<path d="M6686 3193 c-6 -14 -5 -15 5 -6 7 7 10 15 7 18 -3 3 -9 -2 -12 -12z"/>
<path d="M6753 3174 c-23 -26 -31 -50 -13 -39 18 11 10 -12 -11 -31 -11 -10
-18 -26 -16 -36 3 -10 1 -18 -4 -18 -5 0 -9 6 -9 13 -1 18 -27 -45 -34 -84 -6
-30 -4 -29 15 13 12 26 25 45 30 43 4 -3 5 -13 2 -22 -4 -11 -3 -14 5 -9 7 4
12 16 12 27 0 10 5 19 10 19 6 0 10 7 10 15 0 8 -5 15 -10 15 -6 0 -5 6 2 14
18 20 29 9 22 -21 -5 -18 -3 -24 5 -19 6 4 11 12 11 18 0 6 8 18 19 27 22 20
34 71 21 91 -8 13 -10 12 -10 -2 0 -10 -4 -18 -10 -18 -5 0 -10 7 -10 15 0 22
-12 18 -37 -11z m17 -14 c0 -5 -5 -10 -11 -10 -5 0 -7 5 -4 10 3 6 8 10 11 10
2 0 4 -4 4 -10z"/>
<path d="M6655 3139 c-4 -6 -5 -12 -2 -15 2 -3 7 2 10 11 7 17 1 20 -8 4z"/>
<path d="M6873 3105 c-3 -9 -3 -18 -1 -21 3 -3 8 4 11 16 6 23 -1 27 -10 5z"/>
<path d="M6832 3093 c-18 -32 -15 -51 4 -25 8 12 14 28 11 35 -2 7 -8 3 -15
-10z"/>
<path d="M1074 3065 c-3 -8 -4 -20 -2 -27 3 -7 7 -1 10 15 6 29 1 36 -8 12z"/>
<path d="M1171 3064 c0 -11 3 -14 6 -6 3 7 2 16 -1 19 -3 4 -6 -2 -5 -13z"/>
<path d="M6864 3025 c-8 -19 -18 -35 -23 -35 -7 0 -25 -30 -39 -65 -3 -5 11
10 30 35 33 44 63 100 52 100 -3 0 -12 -16 -20 -35z"/>
<path d="M6776 2993 c-4 -21 -10 -47 -13 -58 -5 -17 24 19 52 65 8 13 7 13
-10 0 -17 -14 -18 -13 -13 8 4 12 3 22 -2 22 -4 0 -11 -17 -14 -37z"/>
<path d="M6710 2965 c-7 -9 -11 -18 -8 -20 3 -3 11 1 18 10 7 9 11 18 8 20 -3
3 -11 -1 -18 -10z"/>
<path d="M6736 2928 c-9 -31 -26 -38 -26 -10 0 9 -14 -11 -32 -45 -17 -34 -46
-81 -65 -103 -19 -22 -30 -40 -24 -40 6 0 20 13 32 30 12 16 26 27 30 24 5 -3
6 1 4 8 -3 8 1 22 10 33 14 19 15 19 8 1 -4 -13 -3 -17 5 -12 7 4 12 20 12 37
0 29 15 40 22 17 7 -21 40 39 36 64 -4 22 -5 22 -12 -4z"/>
<path d="M6845 2920 c-9 -16 -11 -30 -6 -30 5 0 14 14 20 30 5 17 8 30 6 30
-3 0 -11 -13 -20 -30z"/>
<path d="M6755 2874 c-15 -19 -25 -37 -22 -40 7 -8 37 7 37 19 0 6 7 18 16 28
9 10 11 20 6 23 -5 3 -22 -10 -37 -30z"/>
<path d="M6969 2883 c-13 -16 -12 -17 4 -4 9 7 17 15 17 17 0 8 -8 3 -21 -13z"/>
<path d="M6816 2852 l-19 -27 26 24 c28 26 32 31 20 31 -5 0 -17 -13 -27 -28z"/>
<path d="M6888 2832 c-32 -20 -58 -40 -58 -44 0 -7 86 49 115 74 20 18 -3 6
-57 -30z"/>
<path d="M6750 2799 c0 -5 5 -7 10 -4 6 3 10 8 10 11 0 2 -4 4 -10 4 -5 0 -10
-5 -10 -11z"/>
<path d="M6681 2766 c-12 -14 -12 -16 4 -10 14 6 16 4 10 -7 -5 -8 1 -5 13 5
24 21 31 36 8 17 -11 -9 -15 -9 -18 0 -2 7 -8 6 -17 -5z"/>
<path d="M1230 2753 c0 -4 5 -15 10 -23 8 -13 10 -13 10 2 0 9 -4 20 -10 23
-5 3 -10 3 -10 -2z"/>
<path d="M6770 2745 c-7 -9 -10 -18 -7 -21 3 -3 10 4 17 15 13 25 8 27 -10 6z"/>
<path d="M6811 2724 c-19 -25 -20 -51 -1 -39 8 5 32 65 25 65 -2 0 -13 -12
-24 -26z"/>
<path d="M6592 2676 c-53 -55 -61 -88 -9 -39 l29 28 -6 -25 c-6 -25 -6 -25 6
-2 6 12 18 21 27 20 9 -2 16 4 16 13 0 9 6 24 14 33 8 9 11 19 8 23 -4 3 -14
-8 -24 -25 -10 -18 -24 -34 -30 -37 -15 -5 -17 11 -3 20 10 6 34 45 28 45 -2
0 -27 -24 -56 -54z"/>
<path d="M1200 2716 c0 -2 8 -10 18 -17 15 -13 16 -12 3 4 -13 16 -21 21 -21
13z"/>
<path d="M6689 2703 c-13 -16 -12 -17 4 -4 9 7 17 15 17 17 0 8 -8 3 -21 -13z"/>
<path d="M6826 2693 c-3 -10 -9 -25 -13 -33 -5 -13 -4 -13 11 -1 9 8 19 11 23
7 12 -12 -31 -35 -44 -24 -9 7 -13 7 -13 -1 0 -22 -1 -26 -16 -51 -15 -25 -15
-25 9 2 14 14 38 33 55 42 17 9 34 21 38 27 4 7 3 9 -3 6 -6 -4 -13 0 -17 8
-3 8 0 15 7 15 8 0 6 4 -3 10 -21 14 -27 12 -34 -7z"/>
<path d="M1046 2683 c-6 -14 -5 -15 5 -6 7 7 10 15 7 18 -3 3 -9 -2 -12 -12z"/>
<path d="M1199 2657 c11 -29 -4 -38 -27 -15 -9 9 -12 9 -12 -1 0 -7 -9 -3 -20
10 -10 13 -19 20 -20 16 0 -17 61 -95 132 -167 40 -41 90 -95 111 -120 l37
-45 0 33 c0 30 3 33 23 27 21 -5 21 -5 2 7 -44 28 -137 125 -157 163 -11 22
-28 49 -37 60 -16 19 -15 19 8 4 13 -8 32 -30 41 -47 25 -45 42 -64 55 -59 6
3 22 -6 34 -19 33 -34 38 -23 9 19 -25 37 -116 117 -132 117 -5 0 -20 10 -34
22 l-23 23 10 -28z"/>
<path d="M6661 2648 c-13 -16 -21 -31 -18 -34 3 -3 15 9 27 26 29 40 22 46 -9
8z"/>
<path d="M6896 2661 c-4 -5 3 -7 14 -4 23 6 26 13 6 13 -8 0 -17 -4 -20 -9z"/>
<path d="M6905 2630 c-3 -5 -1 -10 4 -10 6 0 11 5 11 10 0 6 -2 10 -4 10 -3 0
-8 -4 -11 -10z"/>
<path d="M1060 2594 c8 -36 30 -70 30 -47 0 7 -4 15 -10 18 -5 3 -10 17 -10
30 0 13 -4 26 -9 29 -5 4 -5 -9 -1 -30z"/>
<path d="M6706 2605 c-3 -8 -1 -15 4 -15 6 0 10 7 10 15 0 8 -2 15 -4 15 -2 0
-6 -7 -10 -15z"/>
<path d="M6844 2598 l-19 -23 23 19 c21 18 27 26 19 26 -2 0 -12 -10 -23 -22z"/>
<path d="M6590 2585 c-7 -9 -11 -17 -9 -20 3 -2 10 5 17 15 14 24 10 26 -8 5z"/>
<path d="M6510 2580 c0 -5 5 -10 10 -10 6 0 10 5 10 10 0 6 -4 10 -10 10 -5 0
-10 -4 -10 -10z"/>
<path d="M6701 2573 c-1 -6 -4 -20 -7 -30 -5 -17 -5 -17 6 0 6 10 9 23 6 30
-3 9 -5 9 -5 0z"/>
<path d="M6716 2539 c-26 -29 -30 -49 -7 -34 11 6 45 65 38 65 -2 0 -16 -14
-31 -31z"/>
<path d="M6471 2515 c-27 -58 -27 -70 2 -41 15 15 24 35 24 55 0 17 -1 31 -3
31 -1 0 -11 -20 -23 -45z"/>
<path d="M6507 2537 c-3 -8 1 -14 9 -14 16 0 19 13 5 21 -5 3 -11 0 -14 -7z"/>
<path d="M6931 2534 c0 -11 3 -14 6 -6 3 7 2 16 -1 19 -3 4 -6 -2 -5 -13z"/>
<path d="M6549 2528 c-1 -14 -4 -27 -9 -43 -8 -26 -4 -95 6 -99 7 -3 12 6 12
20 0 13 -6 24 -12 24 -8 0 -8 2 0 8 14 8 25 102 12 102 -4 0 -9 -6 -9 -12z"/>
<path d="M6607 2533 c-4 -3 -7 -11 -7 -17 0 -6 5 -5 12 2 6 6 9 14 7 17 -3 3
-9 2 -12 -2z"/>
<path d="M6789 2514 c-5 -15 -8 -29 -5 -31 2 -2 8 10 14 26 13 38 5 41 -9 5z"/>
<path d="M1096 2486 l-28 -13 32 -7 c47 -9 49 -8 43 14 -6 23 -8 23 -47 6z"/>
<path d="M6491 2444 c-12 -19 -21 -47 -20 -62 l0 -27 12 25 c6 14 17 29 24 33
10 6 16 67 7 67 -1 0 -11 -16 -23 -36z"/>
<path d="M6651 2430 c0 -26 5 -52 12 -59 10 -11 9 -12 -2 -6 -9 5 -12 4 -7 -3
9 -15 46 -16 46 -2 0 6 -4 10 -9 10 -9 0 -19 24 -31 75 -7 27 -8 25 -9 -15z"/>
<path d="M1158 2449 c-2 -6 -19 -14 -38 -19 -32 -7 -30 -8 20 -8 30 0 47 2 38
5 -10 2 -15 10 -11 19 3 8 3 14 0 14 -3 0 -7 -5 -9 -11z"/>
<path d="M6064 2411 c13 -15 14 -20 4 -24 -7 -2 -10 -8 -5 -12 4 -5 12 -4 18
2 13 13 -5 53 -23 53 -6 0 -3 -9 6 -19z"/>
<path d="M6265 2410 c3 -5 8 -10 11 -10 2 0 4 5 4 10 0 6 -5 10 -11 10 -5 0
-7 -4 -4 -10z"/>
<path d="M6010 2391 c0 -6 5 -13 10 -16 6 -3 10 1 10 9 0 9 -4 16 -10 16 -5 0
-10 -4 -10 -9z"/>
<path d="M1343 2351 c12 -22 24 -38 26 -35 6 5 -32 74 -40 74 -4 0 2 -18 14
-39z"/>
<path d="M1475 2380 c-4 -7 -2 -17 4 -23 6 -6 11 -20 11 -30 0 -13 5 -17 15
-13 17 6 19 -7 5 -34 -7 -13 -7 -21 0 -25 11 -7 50 75 50 103 0 11 -9 17 -22
18 -13 0 -30 4 -39 8 -10 4 -20 2 -24 -4z"/>
<path d="M6829 2373 c-13 -16 -12 -17 4 -4 16 13 21 21 13 21 -2 0 -10 -8 -17
-17z"/>
<path d="M6590 2364 c0 -14 -2 -15 -17 -3 -15 13 -15 12 -5 -8 18 -33 27 -34
29 -2 1 16 0 29 -2 29 -3 0 -5 -7 -5 -16z"/>
<path d="M1114 2341 c17 -17 34 -31 39 -31 14 0 -23 39 -48 52 -14 8 -12 2 9
-21z"/>
<path d="M1238 2353 c7 -3 16 -2 19 1 4 3 -2 6 -13 5 -11 0 -14 -3 -6 -6z"/>
<path d="M6421 2342 c-6 -12 -11 -27 -11 -34 1 -7 8 0 16 15 9 16 13 31 11 34
-3 2 -10 -4 -16 -15z"/>
<path d="M6511 2344 c0 -11 3 -14 6 -6 3 7 2 16 -1 19 -3 4 -6 -2 -5 -13z"/>
<path d="M6837 2353 c-4 -3 -7 -11 -7 -17 0 -6 5 -5 12 2 6 6 9 14 7 17 -3 3
-9 2 -12 -2z"/>
<path d="M1271 2325 c-1 -14 69 -69 77 -60 8 7 -37 44 -55 45 -6 0 -14 6 -16
13 -3 6 -6 8 -6 2z"/>
<path d="M6099 2319 c0 -8 -2 -23 -4 -33 -5 -28 20 -122 29 -108 6 10 3 56
-10 126 -4 24 -14 34 -15 15z"/>
<path d="M6727 2313 c-13 -12 -7 -21 18 -27 38 -10 51 4 20 20 -32 16 -30 16
-38 7z"/>
<path d="M1681 2294 c0 -11 3 -14 6 -6 3 7 2 16 -1 19 -3 4 -6 -2 -5 -13z"/>
<path d="M6650 2306 c0 -2 7 -7 16 -10 8 -3 12 -2 9 4 -6 10 -25 14 -25 6z"/>
<path d="M6431 2270 c0 -8 4 -24 9 -35 5 -13 9 -14 9 -5 0 8 -4 24 -9 35 -5
13 -9 14 -9 5z"/>
<path d="M6111 2144 c0 -11 3 -14 6 -6 3 7 2 16 -1 19 -3 4 -6 -2 -5 -13z"/>
<path d="M6593 2149 c11 -7 23 -7 35 0 14 9 11 10 -18 10 -29 0 -32 -1 -17
-10z"/>
<path d="M6530 2090 c-9 -6 -10 -10 -3 -10 6 0 15 5 18 10 8 12 4 12 -15 0z"/>
<path d="M6073 2010 c1 -33 5 -60 8 -60 9 0 17 68 11 97 -9 46 -21 22 -19 -37z"/>
<path d="M5796 2038 c14 -48 23 -54 24 -15 0 27 -4 37 -16 37 -11 0 -14 -6 -8
-22z"/>
<path d="M1812 2015 c0 -16 2 -22 5 -12 2 9 2 23 0 30 -3 6 -5 -1 -5 -18z"/>
<path d="M1994 2015 c-3 -8 -1 -27 4 -42 10 -27 10 -26 11 15 1 43 -5 54 -15
27z"/>
<path d="M6002 1979 c6 -16 12 -29 13 -27 6 6 -8 58 -16 58 -4 0 -3 -14 3 -31z"/>
<path d="M5758 1978 c-7 -19 3 -148 11 -143 7 4 4 146 -3 152 -2 2 -6 -2 -8
-9z"/>
<path d="M2168 1954 c-8 -7 1 -65 11 -76 4 -5 5 9 3 30 -5 49 -6 54 -14 46z"/>
<path d="M5687 1938 c-2 -7 -1 -22 4 -33 6 -16 8 -14 8 13 1 33 -4 41 -12 20z"/>
<path d="M2281 1917 c-1 -26 33 -107 45 -107 3 0 2 5 -2 12 -4 6 -15 36 -25
67 -13 42 -18 49 -18 28z"/>
<path d="M5836 1895 c4 -16 11 -37 15 -47 23 -44 -37 -381 -66 -370 -8 4 -30
-27 -23 -33 8 -9 68 48 68 65 0 9 7 23 16 30 8 8 14 25 14 39 -1 14 -1 28 0
31 1 3 3 21 4 40 1 19 6 54 10 76 9 50 -7 146 -29 177 -16 22 -16 22 -9 -8z"/>
<path d="M5623 1860 c0 -30 2 -43 4 -27 2 15 2 39 0 55 -2 15 -4 2 -4 -28z"/>
<path d="M5672 1835 c0 -16 2 -22 5 -12 2 9 2 23 0 30 -3 6 -5 -1 -5 -18z"/>
<path d="M5891 1814 c0 -11 3 -14 6 -6 3 7 2 16 -1 19 -3 4 -6 -2 -5 -13z"/>
<path d="M5813 1703 c-6 -60 -14 -117 -17 -128 -4 -11 1 -4 10 15 14 31 34
220 22 220 -2 0 -9 -48 -15 -107z"/>
<path d="M5692 1770 c0 -19 2 -27 5 -17 2 9 2 25 0 35 -3 9 -5 1 -5 -18z"/>
<path d="M5940 1758 c0 -23 3 -29 9 -19 8 12 4 51 -5 51 -2 0 -4 -15 -4 -32z"/>
<path d="M5653 1715 c0 -22 2 -30 4 -17 2 12 2 30 0 40 -3 9 -5 -1 -4 -23z"/>
<path d="M2345 1711 c19 -22 55 -46 55 -38 0 3 -17 17 -37 33 -31 23 -34 24
-18 5z"/>
<path d="M5616 1675 c-9 -26 -7 -32 5 -12 6 10 9 21 6 23 -2 3 -7 -2 -11 -11z"/>
<path d="M2320 1674 c0 -5 7 -19 15 -30 8 -10 15 -14 15 -8 0 5 -7 19 -15 30
-8 10 -15 14 -15 8z"/>
<path d="M5782 1660 c0 -14 2 -19 5 -12 2 6 2 18 0 25 -3 6 -5 1 -5 -13z"/>
<path d="M2521 1630 c0 -29 1 -32 10 -17 7 11 7 23 0 35 -9 14 -10 11 -10 -18z"/>
<path d="M1989 1611 c12 -16 21 -34 21 -39 0 -10 60 -52 75 -52 4 0 -13 18
-38 40 -25 23 -49 50 -52 60 -4 11 -11 20 -16 20 -6 0 -1 -13 10 -29z"/>
<path d="M2399 1604 c8 -19 17 -31 19 -26 4 14 -16 62 -27 62 -4 0 -1 -16 8
-36z"/>
<path d="M2430 1617 c0 -7 7 -22 15 -33 13 -17 14 -16 4 14 -11 33 -19 41 -19
19z"/>
<path d="M2464 1609 c3 -8 9 -22 12 -31 10 -29 23 -21 15 9 -4 15 -13 29 -20
31 -9 3 -11 -1 -7 -9z"/>
<path d="M5496 1603 c-6 -14 -5 -15 5 -6 7 7 10 15 7 18 -3 3 -9 -2 -12 -12z"/>
<path d="M2541 1567 c-1 -15 6 -41 14 -57 29 -56 26 -34 -8 70 -3 8 -6 2 -6
-13z"/>
<path d="M5685 1499 c-4 -6 -5 -12 -2 -15 2 -3 7 2 10 11 7 17 1 20 -8 4z"/>
<path d="M2180 1466 c0 -2 8 -10 18 -17 15 -13 16 -12 3 4 -13 16 -21 21 -21
13z"/>
<path d="M2540 1440 c6 -11 13 -20 16 -20 2 0 0 9 -6 20 -6 11 -13 20 -16 20
-2 0 0 -9 6 -20z"/>
<path d="M2220 1440 c0 -5 5 -10 10 -10 6 0 10 5 10 10 0 6 -4 10 -10 10 -5 0
-10 -4 -10 -10z"/>
<path d="M2290 1370 c30 -28 69 -61 85 -73 l30 -21 -23 25 c-12 14 -19 29 -15
34 5 4 3 5 -4 2 -6 -4 -37 14 -70 39 l-58 45 55 -51z"/>
<path d="M2327 1384 c2 -7 11 -10 19 -7 19 7 18 10 -5 16 -13 3 -18 1 -14 -9z"/>
<path d="M5119 1373 c-13 -15 -12 -15 9 -4 23 12 28 21 13 21 -5 0 -15 -7 -22
-17z"/>
<path d="M2619 1343 c41 -55 101 -117 107 -110 4 3 -18 31 -47 62 -30 31 -55
60 -57 65 -2 6 -8 10 -14 10 -5 0 0 -12 11 -27z"/>
<path d="M5200 1360 c0 -5 7 -7 15 -4 8 4 15 8 15 10 0 2 -7 4 -15 4 -8 0 -15
-4 -15 -10z"/>
<path d="M4940 1325 c-16 -19 -1 -19 24 0 16 12 17 15 4 15 -8 0 -21 -7 -28
-15z"/>
<path d="M2581 1286 c7 -15 15 -23 17 -16 3 7 -3 19 -13 28 -15 16 -16 15 -4
-12z"/>
<path d="M2458 1267 c12 -13 20 -26 16 -29 -3 -3 14 -19 38 -35 57 -39 68 -45
68 -38 0 3 -22 19 -50 36 -27 17 -49 33 -48 37 3 11 -26 52 -36 52 -5 0 0 -10
12 -23z"/>
<path d="M2530 1284 c0 -13 48 -59 55 -52 3 2 -9 17 -25 33 -17 16 -30 24 -30
19z"/>
<path d="M5071 1256 c-19 -23 4 -28 24 -6 15 17 16 20 3 20 -9 0 -21 -6 -27
-14z"/>
<path d="M4951 1252 c-1 -7 -11 -26 -23 -42 -12 -16 -19 -32 -16 -35 9 -9 50
63 45 78 -4 9 -6 9 -6 -1z"/>
<path d="M4899 1228 c-12 -23 -12 -23 10 -4 23 21 26 26 11 26 -5 0 -15 -10
-21 -22z"/>
<path d="M5123 1220 c-13 -5 -23 -12 -23 -15 0 -4 6 -3 13 1 8 5 8 2 -2 -9
-15 -19 -36 -23 -25 -5 5 7 3 8 -5 4 -7 -5 -10 -11 -7 -14 3 -3 1 -11 -5 -19
-18 -21 8 -17 47 8 19 11 31 26 28 31 -4 6 -2 8 3 5 6 -4 16 0 23 8 10 12 9
15 -6 14 -11 0 -29 -4 -41 -9z"/>
<path d="M2750 1212 c0 -12 19 -26 26 -19 2 2 -2 10 -11 17 -9 8 -15 8 -15 2z"/>
<path d="M2800 1214 c0 -11 44 -54 56 -54 6 0 32 -18 57 -40 25 -22 49 -40 55
-40 5 0 21 -18 35 -39 14 -21 40 -46 57 -54 l30 -16 -19 27 c-24 34 -73 78
-133 123 -26 19 -48 40 -48 47 0 8 -6 12 -12 9 -7 -2 -28 6 -45 20 -18 13 -33
21 -33 17z"/>
<path d="M4975 1209 c-4 -6 -4 -13 -1 -16 3 -4 -4 -18 -16 -32 -19 -20 -14
-18 25 10 52 36 80 66 34 37 -32 -22 -38 -22 -31 -3 7 17 -2 20 -11 4z"/>
<path d="M2680 1196 c0 -6 126 -96 134 -96 4 0 -1 11 -10 26 -17 25 -74 61
-74 47 0 -5 -5 0 -11 10 -9 15 -39 25 -39 13z"/>
<path d="M5209 1183 c-13 -16 -12 -17 4 -4 9 7 17 15 17 17 0 8 -8 3 -21 -13z"/>
<path d="M5329 1183 c-13 -16 -12 -17 4 -4 9 7 17 15 17 17 0 8 -8 3 -21 -13z"/>
<path d="M2643 1156 c30 -30 77 -56 77 -42 0 8 -91 76 -102 76 -5 0 7 -15 25
-34z"/>
<path d="M2590 1157 c0 -3 12 -12 26 -22 15 -9 23 -12 20 -6 -7 11 -46 35 -46
28z"/>
<path d="M5167 1146 c-4 -10 -1 -13 9 -9 15 6 19 23 5 23 -5 0 -11 -7 -14 -14z"/>
<path d="M5055 1130 c-3 -5 -2 -10 4 -10 5 0 13 5 16 10 3 6 2 10 -4 10 -5 0
-13 -4 -16 -10z"/>
<path d="M2830 1121 c0 -13 124 -91 144 -91 15 0 16 3 6 15 -16 19 -150 86
-150 76z"/>
<path d="M5100 1120 c-8 -5 -10 -10 -5 -10 6 0 17 5 25 10 8 5 11 10 5 10 -5
0 -17 -5 -25 -10z"/>
<path d="M3041 1115 c1 -19 18 -51 18 -35 0 8 -4 22 -9 30 -5 8 -9 11 -9 5z"/>
<path d="M4922 1098 c-7 -7 -18 -13 -25 -13 -6 0 -13 -8 -15 -18 -3 -15 2 -14
27 9 29 25 36 34 28 34 -2 0 -9 -6 -15 -12z"/>
<path d="M5037 1072 c-26 -27 -36 -49 -18 -38 5 4 12 1 14 -4 3 -6 4 -5 3 2
-2 7 6 25 16 41 25 35 19 35 -15 -1z"/>
<path d="M4682 1058 c-6 -18 -13 -52 -16 -75 -3 -23 -10 -51 -16 -63 -6 -11
-8 -20 -6 -20 3 0 13 14 22 32 18 35 44 64 45 51 0 -4 4 1 8 12 5 11 6 26 3
34 -4 11 -8 10 -20 -5 -13 -18 -14 -17 -8 8 3 14 9 33 12 42 3 9 2 16 -3 16
-5 0 -14 -15 -21 -32z"/>
<path d="M4739 1064 c-5 -15 -8 -29 -5 -31 2 -2 8 10 14 26 13 38 5 41 -9 5z"/>
<path d="M5080 1068 c-29 -31 -16 -35 17 -4 15 14 22 26 16 26 -7 0 -21 -10
-33 -22z"/>
<path d="M2690 1076 c0 -3 32 -22 70 -41 39 -20 69 -39 66 -44 -3 -4 13 -13
34 -20 22 -6 40 -16 40 -22 0 -6 -6 -7 -12 -4 -7 4 -2 -2 12 -13 14 -12 27
-16 31 -11 3 6 11 3 19 -6 9 -11 26 -15 48 -13 30 2 36 -1 39 -21 3 -20 1 -22
-11 -12 -10 8 -16 9 -21 1 -5 -8 32 -30 53 -30 3 0 18 -12 33 -26 l28 -27 -3
27 c-2 15 -10 35 -18 44 -42 45 -169 135 -178 126 -3 -4 4 -12 15 -20 49 -33
58 -41 48 -47 -6 -4 -34 16 -64 43 -30 28 -60 50 -67 50 -7 0 -23 11 -35 25
-15 17 -36 27 -66 30 -24 3 -48 8 -52 11 -5 3 -9 3 -9 0z"/>
<path d="M3067 1067 c-8 -22 100 -128 130 -127 5 1 -4 11 -18 23 -15 12 -36
38 -48 57 -11 19 -21 31 -21 25 0 -5 -9 1 -19 14 -14 19 -19 20 -24 8z"/>
<path d="M3130 1063 c0 -7 99 -103 107 -103 2 0 1 5 -3 12 -5 8 -2 9 12 4 14
-5 11 1 -10 23 -16 17 -32 28 -36 26 -4 -3 -13 2 -21 11 -15 19 -49 37 -49 27z"/>
<path d="M5145 1030 c-4 -6 -10 -8 -15 -5 -5 3 -12 0 -15 -5 -4 -6 -18 -15
-31 -20 -16 -6 -27 -20 -30 -40 -4 -16 -13 -30 -21 -30 -10 0 -11 4 -3 19 5
11 10 26 10 33 0 15 -39 -32 -40 -48 0 -11 -30 -42 -30 -31 0 2 7 21 15 41 8
20 11 36 6 36 -11 0 -33 -53 -29 -71 3 -18 -100 -121 -113 -113 -6 3 -19 -3
-30 -15 -11 -12 -24 -19 -29 -16 -6 3 -7 0 -4 -8 3 -9 -7 -24 -23 -37 -15 -12
-50 -46 -77 -76 l-49 -55 44 30 c47 32 82 61 255 210 60 52 124 103 142 114
33 20 43 33 16 23 -9 -3 -12 -2 -9 5 4 5 15 7 24 4 10 -3 24 1 31 10 7 8 9 15
5 15 -4 0 -2 7 5 15 7 8 17 12 23 8 6 -3 7 -1 3 5 -9 15 -23 15 -31 2z"/>
<path d="M2960 996 c0 -2 7 -9 15 -16 9 -7 15 -8 15 -2 0 5 -7 12 -15 16 -8 3
-15 4 -15 2z"/>
<path d="M3308 994 c-3 -5 -1 -20 5 -34 8 -20 11 -22 14 -8 5 20 -12 55 -19
42z"/>
<path d="M4630 970 c0 -5 5 -10 10 -10 6 0 10 5 10 10 0 6 -4 10 -10 10 -5 0
-10 -4 -10 -10z"/>
<path d="M3026 948 c23 -28 36 -38 49 -38 6 0 -5 14 -24 30 -40 36 -52 39 -25
8z"/>
<path d="M3086 936 c4 -9 16 -22 27 -28 21 -11 21 -10 6 12 -19 28 -42 39 -33
16z"/>
<path d="M3341 950 c-1 -3 8 -27 19 -55 10 -27 19 -43 19 -35 0 14 -36 101
-38 90z"/>
<path d="M3190 921 c0 -5 5 -13 10 -16 6 -3 10 -2 10 4 0 5 -4 13 -10 16 -5 3
-10 2 -10 -4z"/>
<path d="M4609 918 c-6 -14 -5 -68 1 -61 15 14 23 63 11 63 -6 0 -11 -1 -12
-2z"/>
<path d="M3327 890 c3 -11 10 -23 16 -27 7 -4 8 0 4 11 -4 10 -7 22 -7 27 0 5
-4 9 -9 9 -5 0 -7 -9 -4 -20z"/>
<path d="M4570 889 c0 -5 5 -7 10 -4 6 3 10 8 10 11 0 2 -4 4 -10 4 -5 0 -10
-5 -10 -11z"/>
<path d="M3134 846 c20 -24 36 -47 36 -50 0 -10 60 -102 60 -93 0 5 -5 18 -11
29 -8 15 -8 19 0 14 6 -4 20 -24 31 -44 14 -25 19 -29 14 -12 -12 44 -31 74
-92 138 -69 72 -91 83 -38 18z"/>
<path d="M4527 871 c3 -11 -4 -28 -16 -40 -12 -12 -21 -32 -21 -45 0 -13 -3
-26 -8 -28 -4 -1 -22 -27 -41 -55 -32 -51 -33 -55 -26 -125 6 -68 4 -77 -23
-131 l-29 -57 31 24 c17 13 31 27 31 32 0 5 8 21 18 35 22 33 38 117 30 162
-6 37 6 122 14 100 7 -20 43 24 43 53 0 14 4 34 10 44 10 19 4 50 -10 50 -5 0
-6 -9 -3 -19z m-81 -336 l-16 -40 6 40 c3 22 8 51 12 65 l6 25 3 -25 c2 -14
-3 -43 -11 -65z"/>
<path d="M4645 880 c-3 -5 -1 -10 4 -10 6 0 11 5 11 10 0 6 -2 10 -4 10 -3 0
-8 -4 -11 -10z"/>
<path d="M4715 880 c-3 -5 -1 -10 4 -10 6 0 11 5 11 10 0 6 -2 10 -4 10 -3 0
-8 -4 -11 -10z"/>
<path d="M4501 844 c0 -11 3 -14 6 -6 3 7 2 16 -1 19 -3 4 -6 -2 -5 -13z"/>
<path d="M4692 828 c-6 -17 -9 -34 -7 -37 3 -2 5 1 5 8 0 7 5 9 10 6 6 -4 10
7 10 24 0 39 -3 39 -18 -1z"/>
<path d="M4551 826 c-6 -16 -10 -31 -7 -33 7 -8 28 37 23 50 -3 7 -10 -1 -16
-17z"/>
<path d="M4591 824 c0 -12 -17 -42 -37 -68 -20 -26 -33 -50 -30 -53 3 -3 8 2
12 11 11 29 23 17 14 -14 -5 -16 -7 -30 -5 -30 3 0 0 -12 -5 -27 -9 -26 -9
-27 5 -9 8 11 15 28 15 38 0 10 9 46 21 79 11 34 18 69 16 78 -3 11 -5 10 -6
-5z"/>
<path d="M4620 814 c-6 -14 -10 -31 -9 -37 0 -7 5 -1 10 12 16 41 20 16 4 -29
-8 -23 -15 -48 -15 -54 1 -19 17 16 33 71 14 45 14 52 1 57 -9 4 -18 -4 -24
-20z"/>
<path d="M4683 765 c-3 -9 -3 -18 0 -21 3 -3 -1 -21 -9 -39 -8 -19 -14 -42
-14 -51 0 -15 3 -15 23 4 26 25 70 102 58 102 -4 0 -20 -23 -35 -51 -33 -60
-47 -59 -16 1 12 23 16 39 10 35 -9 -5 -10 -1 -5 14 7 24 -3 29 -12 6z"/>
<path d="M3170 761 c0 -6 4 -13 10 -16 6 -3 7 1 4 9 -7 18 -14 21 -14 7z"/>
<path d="M3280 713 c0 -4 5 -15 10 -23 8 -13 10 -13 10 2 0 9 -4 20 -10 23 -5
3 -10 3 -10 -2z"/>
<path d="M4577 653 c-9 -25 -15 -48 -13 -50 2 -2 12 16 21 42 10 25 16 47 13
50 -2 2 -12 -17 -21 -42z"/>
<path d="M4512 653 c-10 -34 -10 -36 3 -19 13 17 21 56 12 56 -2 0 -9 -17 -15
-37z"/>
<path d="M4626 645 c-3 -9 -6 -22 -5 -28 0 -7 5 -1 10 12 5 13 8 26 5 28 -2 2
-6 -3 -10 -12z"/>
<path d="M3639 622 c-4 -21 0 -42 11 -60 9 -15 20 -39 23 -54 4 -16 14 -28 22
-28 9 0 15 -10 15 -24 0 -14 4 -27 9 -30 12 -8 -6 69 -24 105 -8 15 -15 35
-15 43 0 8 -5 18 -11 22 -8 4 -9 -1 -4 -17 4 -13 4 -21 -1 -16 -4 4 -10 26
-14 50 l-6 42 -5 -33z"/>
<path d="M3581 540 c0 -14 28 -72 29 -59 0 4 -7 22 -15 40 -8 19 -14 27 -14
19z"/>
<path d="M3630 500 c0 -8 5 -22 10 -30 9 -13 10 -13 10 0 0 8 -5 22 -10 30 -9
13 -10 13 -10 0z"/>
<path d="M4495 500 c-3 -5 -1 -10 4 -10 6 0 11 5 11 10 0 6 -2 10 -4 10 -3 0
-8 -4 -11 -10z"/>
<path d="M3740 481 c0 -5 5 -13 10 -16 6 -3 10 -2 10 4 0 5 -4 13 -10 16 -5 3
-10 2 -10 -4z"/>
<path d="M4308 465 c-3 -14 -1 -28 3 -31 5 -3 9 9 9 25 0 38 -6 40 -12 6z"/>
<path d="M3670 445 c0 -5 5 -17 10 -25 5 -8 10 -10 10 -5 0 6 -5 17 -10 25 -5
8 -10 11 -10 5z"/>
<path d="M3871 339 c0 -19 5 -43 10 -54 6 -13 7 -4 3 30 -8 60 -14 72 -13 24z"/>
<path d="M3820 281 c0 -5 7 -15 17 -22 15 -13 15 -12 4 9 -12 23 -21 28 -21
13z"/>
<path d="M3835 220 c10 -11 20 -20 23 -20 3 0 -3 9 -13 20 -10 11 -20 20 -23
20 -3 0 3 -9 13 -20z"/>
</g>
</svg>
